<?xml version="1.0" encoding="utf-8"?>
<!-- Generator: Adobe Illustrator 27.0.1, SVG Export Plug-In . SVG Version: 6.00 Build 0)  -->
<svg version="1.1" id="Layer_1" xmlns="http://www.w3.org/2000/svg" xmlns:xlink="http://www.w3.org/1999/xlink" x="0px" y="0px"
	 viewBox="0 0 144 109" style="enable-background:new 0 0 144 109;" xml:space="preserve">
<style type="text/css">
	.st0{fill:#9FC9C7;}
	.st1{fill:#676465;}
	.st2{fill:#666364;}
</style>
<path class="st0" d="M20,24c2.9,0,5.3,0.7,7.4,2c0.3,0.2,0.5,0.2,0.8,0c2.5-1.6,5.3-2.2,8.3-2c2.5,0.2,4.8,1.1,6.6,3
	c1.4,1.5,2,3.2,2.2,5.2c0.1,1.9-0.2,3.7-1.4,5.3c-0.8,1.2-1.9,2.1-3.1,2.9c-1.9,1.3-3.9,2.4-5.9,3.7c-1.4,0.9-2.7,1.9-3.5,3.4
	c-1.3,2.5-0.2,5.4,2.8,6.2c2.1,0.6,4.1,0.2,6.1-0.7c0.9-0.4,1.7-0.9,2.5-1.5c0.2-0.2,0.3-0.2,0.4,0.1c0.6,1.1,1.1,2.2,1.7,3.2
	c0.1,0.3,0.1,0.4-0.2,0.6c-2.1,1.5-4.5,2.5-7,2.8c-2.1,0.2-4.2,0.1-6.2-0.8c-1.4-0.6-2.6-1.5-3.5-2.8c-0.2-0.3-0.3-0.3-0.6,0
	c-1.5,2-3.6,3.1-6.1,3.5c-2.8,0.4-5.6,0-8.1-1.3c-0.9-0.4-1.7-0.9-2.5-1.5c-0.2-0.1-0.3-0.3-0.1-0.5c0.6-1,1.1-2.1,1.7-3.2
	c0.2-0.3,0.2-0.4,0.6-0.1c1.5,1.2,3.2,2,5.1,2.3c1.7,0.3,3.4,0.1,4.8-0.9c1.9-1.3,2.4-3.7,1.3-5.7c-0.9-1.6-2.3-2.6-3.8-3.6
	c-1.9-1.2-3.9-2.2-5.7-3.6c-1.4-1-2.7-2.2-3.5-3.9c-1.1-2.3-1.1-4.7-0.1-7c1.3-3.1,3.8-4.6,7-5.2C18.7,24.1,19.5,24,20,24L20,24z
	 M14.7,32.3c0,0.2,0,0.5,0.1,0.7c0.3,1.5,1.3,2.5,2.4,3.4c1.8,1.4,3.7,2.4,5.7,3.5c1.8,1.1,3.5,2.3,4.7,4.1c0.2,0.3,0.3,0.1,0.4,0
	c0.7-1,1.5-1.9,2.5-2.6c1.6-1.2,3.4-2.1,5.1-3.2c1.4-0.9,2.9-1.8,4-3c1.8-1.9,1.5-4.5-0.6-5.9c-1.7-1-3.6-1.1-5.5-0.7
	c-2.1,0.5-3.9,1.5-5.5,2.9c-0.2,0.2-0.3,0.2-0.5,0c-1.2-1-2.5-1.8-4-2.4c-2-0.8-4-1-6.1-0.3C15.8,29.4,14.8,30.7,14.7,32.3
	L14.7,32.3z"/>
<path class="st1" d="M21.3,70.4c0.7-1.1,1.6-1.6,2.9-1.6c1.5,0,2.5,0.7,3,2.1c0.5,1.6,0.5,3.2-0.1,4.7c-0.7,1.7-2.1,2.5-3.9,2.6
	c-0.4,0-0.7,0.1-1.1,0c-0.5-0.1-0.5,0.1-0.5,0.5c0,1.2,0,2.3,0,3.5c0,0.3-0.1,0.5-0.4,0.4c-0.5,0-0.9,0-1.4,0
	c-0.4,0-0.5-0.1-0.5-0.5c0-4.2,0-8.4,0-12.6c0-0.1,0-0.2,0-0.2c0-0.2,0.1-0.3,0.3-0.3c0.5,0,1,0,1.5,0c0.2,0,0.3,0.1,0.3,0.3
	C21.3,69.6,21.3,69.9,21.3,70.4L21.3,70.4z M21.5,74.7c0,0.3,0,0.5,0,0.8c0,0.6,0.3,0.9,0.9,1c1,0.1,1.9-0.3,2.2-1.1
	c0.6-1.2,0.5-2.5,0.1-3.7c-0.3-0.9-1.3-1.1-2.1-0.6c-0.5,0.4-0.8,0.9-0.9,1.5C21.5,73.2,21.5,73.9,21.5,74.7L21.5,74.7z"/>
<path class="st2" d="M17.8,68.3c-0.3-0.3-0.6-0.5-0.9-0.7c-0.8-0.6-1.7-1-2.7-0.9c-0.3,0-0.5,0.1-0.8,0.2c-0.7,0.3-0.9,1-0.5,1.7
	c0.3,0.5,0.8,0.8,1.3,1.1c0.8,0.5,1.7,0.9,2.5,1.5c0.8,0.6,1.4,1.3,1.6,2.3c0.7,2.6-1,4.8-3.7,4.9c-1.5,0.1-2.8-0.4-4-1.2
	c-0.2-0.1-0.3-0.3-0.1-0.5c0.3-0.5,0.5-1,0.8-1.5c0.1-0.3,0.2-0.3,0.5-0.1c0.6,0.5,1.4,0.9,2.2,1c0.4,0.1,0.7,0,1.1-0.1
	c1-0.3,1.3-1.3,0.8-2.2c-0.3-0.5-0.7-0.8-1.2-1.1c-1-0.6-2-1.1-2.9-1.9c-1.5-1.4-1.7-3.6-0.4-5.2c0.8-0.9,1.8-1.3,2.9-1.4
	c1.2-0.1,2.4,0.2,3.4,0.8c0.2,0.1,0.4,0.3,0.4,0.6C17.8,66.5,17.8,67.4,17.8,68.3L17.8,68.3z"/>
<path class="st2" d="M61.7,71.4c0,2.1,0,4.2,0,6.3c0,0.3-0.1,0.5-0.4,0.4c-0.4,0-0.9,0.2-1.2-0.1c-0.2-0.2-0.1-0.8-0.1-1.1
	c0-1.5,0-3.1,0-4.6c0-0.3-0.1-0.4-0.4-0.4c-1.8,0-3.6,0-5.5,0c-0.4,0-0.4,0.1-0.4,0.4c0,1.8,0,3.6,0,5.5c0,0.3-0.1,0.5-0.4,0.4
	c-0.3,0-0.5,0-0.8,0c-0.4,0-0.4-0.1-0.4-0.5c0-4.2,0-8.4,0-12.6c0-0.4,0.1-0.5,0.5-0.4c0.4,0,0.9-0.2,1.1,0.1
	c0.2,0.2,0.1,0.7,0.1,1.1c0,1.4,0,2.7,0,4.1c0,0.4,0.1,0.4,0.5,0.4c1.8,0,3.6,0,5.4,0c0.4,0,0.4-0.1,0.4-0.4c0-1.6,0-3.3,0-4.9
	c0-0.3,0.1-0.4,0.4-0.4c0.4,0,0.9-0.2,1.2,0.1c0.3,0.2,0.1,0.8,0.1,1.2C61.7,67.7,61.7,69.5,61.7,71.4L61.7,71.4z"/>
<path class="st2" d="M41.7,78.3c-0.4,0-1,0-1.5-0.2c-1.7-0.4-2.7-1.6-2.9-3.6c-0.1-1.2,0-2.4,0.5-3.6c1-2.1,3.9-2.9,5.9-1.6
	c1,0.7,1.5,1.7,1.6,2.9c0,0.4,0,0.8,0,1.2c0,0.3-0.1,0.5-0.5,0.5c-1.6,0-3.2,0-4.8,0c-0.4,0-0.4,0.1-0.4,0.4c0.1,1.2,0.8,2,2.1,2.1
	c0.9,0.1,1.9-0.1,2.7-0.4c0.3-0.1,0.4,0,0.4,0.2c0,0.4,0.1,0.8,0.1,1.2c0,0.2,0,0.3-0.3,0.4c-0.4,0.1-0.8,0.2-1.2,0.3
	C42.9,78.3,42.3,78.3,41.7,78.3L41.7,78.3z M41.3,72.3c0.5,0,0.9,0,1.4,0c0.2,0,0.3,0,0.3-0.2c0-0.8-0.6-1.5-1.3-1.6
	c-1-0.1-1.7,0.5-2,1.5c0,0.2,0,0.3,0.2,0.3C40.4,72.3,40.8,72.3,41.3,72.3L41.3,72.3z"/>
<path class="st1" d="M91.4,70.7c0.1-0.2,0.2-0.4,0.3-0.5c0.9-1.3,2.8-1.9,4.2-1.2c0.9,0.4,1.2,1.1,1.3,2c0.1,1.1,0,2.1,0,3.2
	c0,1.2,0,2.3,0,3.5c0,0.3-0.1,0.4-0.4,0.4c-0.3,0-0.6,0-0.9,0c-0.3,0-0.4-0.1-0.4-0.4c0-1.7,0-3.4,0-5.2c0-0.3,0-0.6,0-1
	c-0.1-1.1-0.9-1.7-2-1.4c-0.7,0.2-1.2,0.6-1.6,1.3c-0.4,0.7-0.5,1.5-0.5,2.3c0,1.3,0,2.6,0,4c0,0.3-0.1,0.4-0.4,0.4
	c-0.3,0-0.6,0-1,0c-0.2,0-0.3-0.1-0.3-0.3c0-4.3,0-8.6,0-12.9c0-0.2,0.1-0.3,0.3-0.3c0.3,0,0.7,0,1,0c0.3,0,0.3,0.1,0.3,0.3
	C91.4,66.8,91.5,68.7,91.4,70.7L91.4,70.7z"/>
<path class="st1" d="M76.7,76.5c-0.5,1-1.3,1.6-2.3,1.8c-0.6,0.1-1.1,0.1-1.7-0.1c-1.5-0.4-2-2.2-1.1-3.6c0.6-0.8,1.4-1.2,2.3-1.5
	c0.8-0.2,1.5-0.3,2.3-0.3c0.3,0,0.4-0.1,0.4-0.4c0-1.8-0.6-2.4-2.4-2.2c-0.7,0.1-1.4,0.2-2,0.6c-0.3,0.1-0.3,0.1-0.4-0.2
	c-0.1-1.1-0.1-1.1,1-1.4c1.1-0.3,2.2-0.4,3.3-0.2c1.3,0.2,2,1,2.1,2.3c0.1,0.9,0,1.7,0.1,2.6c0,1.3,0,2.6,0,4c0,0.4-0.1,0.5-0.4,0.4
	c-0.3,0-0.6,0-0.9,0c-0.2,0-0.3-0.1-0.3-0.3C76.7,77.4,76.7,77,76.7,76.5L76.7,76.5z M74.2,77c1.6-0.1,2.4-1.6,2.5-2.9
	c0-0.1-0.1-0.2-0.2-0.2c-1,0-2.1,0.1-3,0.7c-0.6,0.4-0.8,1-0.6,1.6C73,76.7,73.5,77,74.2,77L74.2,77z"/>
<path class="st1" d="M106.5,70.8c-0.2-0.4-0.1-0.8-0.2-1.2c0-0.2,0.1-0.2,0.2-0.2c1.4-0.5,2.9-0.8,4.3-0.4c1.3,0.3,1.9,1.1,2,2.5
	c0.1,2.1,0,4.3,0,6.4c0,0.2-0.1,0.3-0.3,0.3c0,0-0.1,0-0.1,0c-0.8,0-1.2-0.4-1.2-1.2c0-0.1,0-0.2,0-0.4c-0.1,0-0.2,0.1-0.2,0.2
	c-0.8,1.2-2.2,1.7-3.5,1.4c-2.2-0.4-2.2-2.8-1.2-3.9c0.6-0.6,1.3-1,2.1-1.2c0.8-0.2,1.5-0.3,2.3-0.3c0.4,0,0.4-0.1,0.4-0.4
	c0-1.7-0.7-2.3-2.4-2.2C108,70.2,107.3,70.4,106.5,70.8L106.5,70.8z M110.7,73.9c-1,0-1.9,0.2-2.5,0.5c-0.7,0.4-1,1-0.7,1.7
	c0.2,0.6,0.9,0.9,1.7,0.8c1.1-0.2,1.9-1.1,2.1-2.4C111.3,73.9,111.3,73.9,110.7,73.9L110.7,73.9z"/>
<path class="st1" d="M67.5,73.4c-0.9,0-1.7,0-2.6,0c-0.3,0-0.4,0.1-0.4,0.4c0,0.4,0.1,0.8,0.1,1.2c0.3,1.2,1.1,1.9,2.4,2
	c0.9,0.1,1.8-0.1,2.7-0.4c0.3-0.1,0.4,0,0.4,0.3c0,0,0,0,0,0c0.1,1,0.1,1-0.9,1.2c-1,0.3-2.1,0.3-3.2,0.2c-1.6-0.3-2.6-1.2-3-2.8
	c-0.4-1.5-0.3-3,0.3-4.4c1.1-2.5,3.8-2.6,5.3-1.9c1.3,0.6,1.8,1.8,1.9,3.2c0.1,1.1,0.1,1.1-1,1.1C68.8,73.4,68.1,73.4,67.5,73.4
	L67.5,73.4z M66.7,72.3c0.6,0,1.2,0,1.9,0c0.2,0,0.3,0,0.3-0.3c0-0.9-0.6-1.8-1.5-1.9c-1.3-0.2-2.3,0.5-2.6,1.8
	c-0.1,0.3,0,0.4,0.3,0.4C65.5,72.2,66.1,72.3,66.7,72.3L66.7,72.3z"/>
<path class="st1" d="M123.4,73.4c-0.9,0-1.7,0-2.6,0c-0.3,0-0.4,0.1-0.4,0.4c0,0.4,0.1,0.8,0.1,1.1c0.3,1.3,1.1,1.9,2.4,2
	c0.9,0.1,1.8-0.1,2.6-0.4c0.3-0.1,0.4-0.1,0.4,0.2c0.1,1,0.1,1-0.9,1.3c-1,0.3-2.1,0.3-3.1,0.2c-1.8-0.3-2.8-1.3-3.1-3.1
	c-0.2-1.4-0.2-2.7,0.4-4c1.1-2.5,3.7-2.7,5.3-2c1.3,0.6,1.8,1.8,1.9,3.1c0.1,1.2,0.1,1.2-1.1,1.2C124.7,73.4,124.1,73.4,123.4,73.4
	L123.4,73.4z M122.6,72.3c0.6,0,1.2,0,1.9,0c0.2,0,0.3,0,0.3-0.3c0-1-0.6-1.8-1.6-1.9c-1.3-0.2-2.5,0.7-2.6,2c0,0.2,0.1,0.2,0.2,0.2
	C121.4,72.3,122,72.3,122.6,72.3L122.6,72.3z"/>
<path class="st1" d="M85.9,65.5c0,1,0,2,0,3c0,0.3,0.1,0.5,0.4,0.5c0.6,0,1.2,0,1.8,0c0.3,0,0.3,0.1,0.3,0.3c0,1,0,1-0.9,1
	c-0.5,0-0.9,0-1.4,0c-0.2,0-0.3,0.1-0.3,0.3c0,1.7,0,3.3,0,5c0,1,0.4,1.3,1.4,1.3c0.2,0,0.3,0,0.5,0c0.2,0,0.5-0.2,0.6,0
	c0.1,0.4,0,0.8,0,1.2c0,0-0.2,0.1-0.2,0.1c-0.7,0.1-1.4,0.2-2.1,0.1c-1.2-0.2-1.7-0.8-1.8-2.2c0-1.5,0-3.1,0-4.6
	c0-0.4,0.1-0.9-0.1-1.1c-0.2-0.3-0.8,0-1.2-0.1c-0.2,0-0.5,0.1-0.6-0.1c-0.1-0.3,0-0.7,0-1.1c0-0.1,0.2-0.1,0.3-0.1
	c0.4,0,0.8,0,1.2,0c0.3,0,0.4-0.1,0.4-0.4c0-0.8,0-1.5,0-2.3c0-0.3,0.1-0.4,0.3-0.4C85.1,65.8,85.5,65.7,85.9,65.5L85.9,65.5z"/>
<path class="st2" d="M34.3,70.5c0.4-0.5,0.7-1,1.2-1.4c0.4-0.2,0.8-0.3,1.3-0.4c0.3,0,0.3,0.1,0.3,0.3c0,0.6-0.1,1.2-0.1,1.7
	c0,0.1,0,0.2-0.2,0.3c-1.5,0-2.1,0.6-2.2,2.2c-0.2,1.5-0.1,2.9-0.1,4.4c0,0.4-0.1,0.5-0.5,0.5c-0.5,0-1,0-1.5,0
	c-0.3,0-0.4-0.1-0.4-0.3c0-2.8,0-5.7,0-8.5c0-0.3,0.1-0.4,0.4-0.4c0.5,0,1,0,1.5,0c0.3,0,0.4,0.1,0.4,0.4
	C34.3,69.7,34.3,70.1,34.3,70.5L34.3,70.5z"/>
<path class="st1" d="M104.7,76.4c0,0.2,0,0.3,0,0.5c0.1,1.1,0.3,0.9-0.9,1.3c-0.8,0.2-1.6,0.3-2.4,0.1c-1.8-0.3-2.8-1.3-3.1-3
	c-0.2-1-0.2-2,0-2.9c0.6-2.7,2.6-3.6,5-3.4c0.3,0,0.6,0.1,0.9,0.1c0.1,0,0.2,0,0.3,0.1c0.5,0.4,0.1,0.9,0.1,1.3
	c0,0.4-0.3,0.1-0.4,0.1c-0.7-0.2-1.3-0.3-2-0.2c-1,0.2-1.6,0.7-1.9,1.6c-0.4,1.1-0.4,2.3-0.1,3.4c0.3,1,1.1,1.5,2.1,1.6
	C103.1,76.9,103.9,76.7,104.7,76.4L104.7,76.4z"/>
<path class="st2" d="M81.3,71.4c0,2.1,0,4.2,0,6.2c0,0.4-0.1,0.5-0.5,0.4c-0.4,0-0.9,0.1-1.1-0.1c-0.3-0.2-0.1-0.7-0.1-1.1
	c0-3.9,0-7.9,0-11.8c0-0.4,0.1-0.5,0.5-0.5c0.4,0,0.9-0.2,1.1,0.1c0.2,0.2,0.1,0.7,0.1,1.1C81.3,67.7,81.3,69.6,81.3,71.4L81.3,71.4
	z"/>
<path class="st1" d="M30.8,73.6c0,1.4,0,2.8,0,4.1c0,0.3-0.1,0.4-0.4,0.4c-0.5,0-1.1,0-1.6,0c-0.3,0-0.4-0.1-0.4-0.4
	c0-2.8,0-5.6,0-8.4c0-0.3,0.1-0.4,0.4-0.4c0.5,0,1.1,0,1.6,0c0.3,0,0.4,0.1,0.4,0.4C30.8,70.8,30.8,72.2,30.8,73.6L30.8,73.6z"/>
<path class="st1" d="M115.8,70.7c0.1-0.2,0.2-0.4,0.3-0.6c0.5-0.8,1.3-1.3,2.3-1.3c0.3,0,0.4,0,0.4,0.4c0,0.1,0,0.1,0,0.2
	c0,0.3,0.1,0.7-0.1,0.9c-0.2,0.3-0.6,0.1-0.9,0.1c-0.7,0.1-1.1,0.5-1.4,1.1c-0.3,0.6-0.4,1.3-0.5,1.9c-0.1,1.4,0,2.8,0,4.2
	c0,0.4-0.1,0.5-0.5,0.4c-0.4,0-0.9,0.2-1.1-0.1c-0.2-0.2-0.1-0.7-0.1-1.1c0-2.5,0-5,0-7.5c0-0.4,0.1-0.5,0.5-0.5
	c1.2,0,1.2,0,1.1,1.2C115.8,70.3,115.8,70.5,115.8,70.7C115.8,70.7,115.8,70.7,115.8,70.7L115.8,70.7z"/>
<path class="st1" d="M28.3,66.8c0-0.7,0.6-1.3,1.3-1.3c0.7,0,1.3,0.6,1.3,1.3c0,0.7-0.6,1.3-1.3,1.3C28.9,68.1,28.3,67.5,28.3,66.8
	L28.3,66.8z"/>
</svg>
