<?xml version="1.0" encoding="utf-8"?>
<!-- Generator: Adobe Illustrator 27.0.1, SVG Export Plug-In . SVG Version: 6.00 Build 0)  -->
<svg version="1.1" id="Layer_1" xmlns="http://www.w3.org/2000/svg" xmlns:xlink="http://www.w3.org/1999/xlink" x="0px" y="0px"
	 viewBox="0 0 120 109" style="enable-background:new 0 0 120 109;" xml:space="preserve">
<style type="text/css">
	.st0{fill:#0F265C;}
</style>
<image style="display:none;overflow:visible;" width="1212" height="1024" xlink:href="../../../../../../../Downloads/General_Medical_Council_logo.svg.png"  transform="matrix(6.403338e-02 0 0 6.403338e-02 19.9609 0.2191)">
</image>
<path class="st0" d="M20.3,33.2c-1.1,0.4-2.4,1-4.2,1c-3.5,0-5.8-2.1-5.8-5.5c0-3.3,2.3-5.6,5.9-5.6c2.1,0,3.3,0.5,4,1
	c0,0.4-0.1,0.8-0.4,1.3h-0.2c-0.7-0.8-1.8-1.5-3.4-1.5c-2.7,0-4.2,2.1-4.2,4.8c0,2.8,1.8,4.7,4.3,4.7c0.8,0,1.9-0.3,2.5-0.7
	c0-1.2-0.1-3.3-0.1-3.9h1.6C20.3,29.7,20.3,32.7,20.3,33.2z M23.4,30.4h5l0.2-0.1c0-1.5-0.4-3.8-3.2-3.8c-2.3,0-3.6,2-3.6,4
	c0,1.7,1.1,3.7,3.9,3.7c1.5,0,2.5-0.6,2.7-1c0.1-0.2,0.1-0.6,0.1-1h-0.2c-0.3,0.5-1.1,1.2-2.3,1.2C24.6,33.5,23.4,32.6,23.4,30.4z
	 M23.4,29.7c0.1-1.7,1.1-2.5,2.1-2.5c1.2,0,1.8,1.2,1.7,2.5H23.4z M35.2,34.1c0-0.7,0.1-3.8,0.1-4.3c0-1.3-0.5-2.3-1.8-2.3
	c-0.7,0-2,0.6-2,2.5c0,0.4,0.1,3.5,0.1,4h-1.5c0.1-0.9,0.1-3.8,0.1-4.3c0-0.5,0-2.4-0.1-3.1h1.5l0,1.1c0.4-0.7,1.2-1.2,2.4-1.2
	c1.5,0,2.7,1,2.7,2.7c0,0.7-0.1,2.6-0.1,2.8c0,0.3,0,1.8,0.1,2.1L35.2,34.1L35.2,34.1L35.2,34.1z M39.7,30.4h5.1l0.2-0.1
	c0-1.5-0.4-3.8-3.2-3.8c-2.3,0-3.6,2-3.6,4c0,1.7,1.1,3.7,3.9,3.7c1.5,0,2.4-0.6,2.7-1c0.1-0.2,0.1-0.6,0.1-1h-0.2
	c-0.3,0.5-1.1,1.2-2.3,1.2C41,33.5,39.8,32.6,39.7,30.4z M39.8,29.7c0.1-1.7,1.1-2.5,2.1-2.5c1.2,0,1.8,1.2,1.7,2.5H39.8z
	 M50.2,28.1H50c-0.1-0.3-0.3-0.5-0.7-0.5c-0.9,0-1.5,0.9-1.5,2.4c0,0.4,0.1,3.5,0.1,4h-1.5c0.1-0.9,0.1-3.8,0.1-4.3
	c0-0.5,0-2.4-0.1-3.1H48l0,1.2c0.2-0.6,0.9-1.4,1.9-1.4c0.3,0,0.5,0.1,0.7,0.3C50.6,27.2,50.5,27.7,50.2,28.1z M55.5,33.3
	c0.2,0.6,0.4,0.8,1.2,0.8c0.3,0,0.8-0.1,1-0.3v-0.5c-0.1,0.1-0.3,0.1-0.4,0.1c-0.3,0-0.4-0.2-0.4-0.8c0-0.5,0.1-3.1,0.1-3.7
	c0-1.3-0.8-2.4-2.6-2.4c-1.2,0-1.9,0.4-2.5,0.8c-0.1,0.1-0.1,0.2-0.1,0.4c0,0.2,0,0.5,0.1,0.7H52c0.4-0.7,0.9-1.2,1.8-1.2
	c0.9,0,1.6,0.6,1.6,1.6v0.6c-0.5,0.2-1,0.3-1.5,0.4c-1.5,0.4-3,0.7-3,2.4c0,0.9,0.6,2,2.3,2C54.2,34.2,54.9,33.9,55.5,33.3z
	 M54.9,30.3c0.2,0,0.4-0.1,0.5-0.1v2.3c-0.6,0.7-1.2,1-1.7,1c-0.7,0-1.3-0.5-1.3-1.3C52.4,30.9,53.6,30.6,54.9,30.3z M59,34.1
	c0.1-0.9,0.1-5.4,0.1-5.9c0-0.5,0-4.6-0.1-5.4h1.5c0,0.7-0.1,4.9-0.1,5.4c0,0.5,0,4.9,0.1,5.9H59z M20.2,49.5
	c-0.2-2.7-0.4-5-0.7-7.6c-1.4,2.8-2.3,4.8-3.6,7.6h-0.3c-1.3-2.7-2.4-4.9-3.7-7.6c-0.1,1.6-0.3,4.9-0.4,7.6h-1.2
	c0.4-3.7,0.7-7.2,1.1-10.9h0.4c1.4,2.9,2.8,5.4,4.4,8.3c1.5-2.9,2.6-5.3,4.1-8.3h0.3c0.4,3.6,0.8,7.2,1.2,10.9L20.2,49.5L20.2,49.5z
	 M24.4,45.9h5.1l0.2-0.1c0-1.5-0.4-3.8-3.2-3.8c-2.4,0-3.6,2-3.6,4c0,1.7,1.1,3.7,3.9,3.7c1.5,0,2.5-0.6,2.7-1
	c0.1-0.2,0.1-0.6,0.1-1h-0.2c-0.3,0.5-1.1,1.2-2.3,1.2C25.7,48.9,24.5,48,24.4,45.9z M24.5,45.1c0.1-1.7,1.1-2.5,2.1-2.5
	c1.2,0,1.8,1.2,1.7,2.5H24.5z M36.8,48.5c0,0.4,0,0.8,0,1h1.5c0-0.5,0-1.8-0.1-3.1c0-1.3,0-2.5,0-2.7c0-0.2,0-1.2,0-2.2
	c0-1.3,0-2.7,0-3.1h-1.4c0,0.4,0.1,1.5,0.1,2.6c0,0.7,0,1.5,0,2c-0.4-0.5-1.1-1-2.1-1c-2.4,0-3.7,2-3.7,3.9c0,1.5,0.8,3.9,3.5,3.9
	C35.5,49.7,36.3,49.4,36.8,48.5z M32.6,45.9c0-1.9,1-3.1,2.2-3.1c1.2,0,2.1,0.9,2.1,3.1c0,1.6-0.7,3.2-2.2,3.2
	C33.3,49,32.6,47.6,32.6,45.9z M40.2,39.7c0,0.5,0.4,0.9,0.9,0.9c0.5,0,0.9-0.4,0.9-0.9c0-0.5-0.4-0.9-0.9-0.9
	C40.7,38.8,40.2,39.2,40.2,39.7z M40.4,45.3c0,0.5,0,3.3-0.1,4.3h1.5c0-0.9-0.1-3.8-0.1-4.3c0-0.3,0-1.3,0.1-2.1c0-0.4,0-0.8,0-1
	h-1.5C40.4,42.9,40.4,44.8,40.4,45.3z M50.1,48.8c-0.2,0.4-1.2,1-2.7,1c-3,0-3.8-2.3-3.8-3.9c0-2.4,1.6-3.9,4-3.9
	c1,0,1.8,0.3,2.5,0.8c0,0.4-0.1,0.7-0.4,1.2h-0.2c-0.4-0.6-0.9-1.2-1.9-1.2c-1.5,0-2.5,1.2-2.5,3.1c0,2,1,3.1,2.6,3.1
	c1.1,0,2-0.7,2.3-1.2h0.2C50.3,48.1,50.3,48.5,50.1,48.8z M55.7,48.8c0.2,0.6,0.4,0.8,1.2,0.8c0.2,0,0.4-0.1,0.7-0.1
	c0.1-0.1,0.2-0.1,0.3-0.1v-0.5c-0.1,0.1-0.3,0.1-0.4,0.1c-0.3,0-0.4-0.2-0.4-0.8c0-0.5,0.1-3.1,0.1-3.7c0-1.3-0.8-2.4-2.6-2.4
	c-1.2,0-2,0.4-2.5,0.8c-0.2,0.1-0.1,0.8,0,1.1h0.2c0.4-0.7,0.9-1.2,1.8-1.2c0.9,0,1.6,0.6,1.6,1.6v0.5c-0.5,0.2-1,0.3-1.5,0.4
	c-1.5,0.4-3,0.7-3,2.4c0,0.9,0.6,2,2.3,2C54.3,49.7,55,49.4,55.7,48.8z M55.1,45.8c0.2,0,0.4-0.1,0.5-0.1v2.3c-0.6,0.7-1.2,1-1.7,1
	c-0.7,0-1.3-0.5-1.3-1.3C52.6,46.4,53.7,46.1,55.1,45.8z M59.2,49.5c0.1-0.9,0.1-5.4,0.1-5.9c0-0.5,0-4.6-0.1-5.4h1.5
	c0,0.7-0.1,4.9-0.1,5.4c0,0.5,0,4.9,0.1,5.9H59.2z M55.5,55.9c0,0.5,0.4,0.9,0.9,0.9s0.9-0.4,0.9-0.9S56.9,55,56.4,55
	C55.9,55,55.5,55.4,55.5,55.9z M20.7,63.6c-0.4,0.7-1.9,1.7-3.9,1.7c-4.6,0-5.8-3.3-5.8-5.5c0-3.7,2.7-5.6,5.7-5.6
	c2,0,3.1,0.6,3.8,1c0,0.4-0.1,0.9-0.4,1.3h-0.2c-0.7-0.9-1.8-1.5-3.2-1.5c-2.8,0-4,2.3-4,4.7c0,2.1,1.3,4.8,4.3,4.8
	c1.7,0,3.2-1.1,3.6-1.9h0.2C20.8,62.9,20.8,63.5,20.7,63.6z M21.6,61.5c0,1.5,0.8,3.9,3.8,3.9c3,0,3.8-2.3,3.8-3.9
	c0-2.1-1.3-3.9-3.8-3.9C23,57.6,21.6,59.4,21.6,61.5z M23.2,61.4c0-1.6,0.7-3.2,2.3-3.2c1.5,0,2.3,1.6,2.3,3.2
	c0,1.8-0.7,3.2-2.3,3.2C23.9,64.6,23.2,63.2,23.2,61.4z M37.2,62c0,0.5,0,2.4,0.1,3.1h-1.5l0-1.1c-0.4,0.7-1.2,1.2-2.4,1.2
	c-1.5,0-2.7-1-2.7-2.6c0-0.7,0.1-2.6,0.1-2.8c0-0.5,0-1.6-0.1-2.1h1.5c0,0.7-0.1,3.8-0.1,4.3c0,1.3,0.5,2.3,1.8,2.3
	c0.7,0,2-0.6,2-2.5c0-0.4-0.1-3.5-0.1-4h1.5C37.2,58.7,37.2,61.5,37.2,62z M44.3,65.1c0-0.7,0.1-3.8,0.1-4.3c0-1.3-0.5-2.3-1.8-2.3
	c-0.7,0-2,0.6-2,2.5c0,0.4,0.1,3.5,0.1,4h-1.5c0.1-0.9,0.1-3.8,0.1-4.3c0-0.5,0-2.4-0.1-3.1h1.5l0,1.1c0.4-0.7,1.2-1.2,2.4-1.2
	c1.5,0,2.7,1,2.7,2.6c0,0.7-0.1,2.6-0.1,2.8s0,1.8,0.1,2.1L44.3,65.1L44.3,65.1z M53.6,59.5h-0.2c-0.3-0.6-1-1.2-2-1.2
	c-1.5,0-2.6,1.2-2.6,3.2c0,2.1,1.3,3.1,2.6,3.1c1.1,0,2-0.5,2.3-1.1H54c0.1,0.3,0,0.8-0.1,1c-0.2,0.2-0.8,1-2.7,1
	c-2.6,0-3.9-2-3.9-3.9c0-1.5,0.8-3.9,4-3.9c1.4,0,2.1,0.4,2.7,0.8C54,58.7,53.9,59.1,53.6,59.5z M55.7,60.9c0,0.5,0,3.3-0.1,4.3h1.5
	c0-0.9-0.1-3.8-0.1-4.3c0-0.5,0.1-2.4,0.1-3.1h-1.5C55.6,58.4,55.7,60.4,55.7,60.9z M59.3,65.1c0.1-0.9,0.1-5.4,0.1-5.9
	c0-0.5,0-4.6-0.1-5.4h1.5c0,0.7-0.1,4.9-0.1,5.4c0,0.5,0,4.9,0.1,5.9H59.3z"/>
<image style="display:none;overflow:visible;enable-background:new    ;" width="1024" height="209" xlink:href="528D574A2805162D.png"  transform="matrix(1 0 0 1 -82.5634 -105.1449)">
</image>
</svg>
