<?xml version="1.0" encoding="utf-8"?>
<!-- Generator: Adobe Illustrator 27.0.1, SVG Export Plug-In . SVG Version: 6.00 Build 0)  -->
<svg version="1.1" id="Layer_1" xmlns="http://www.w3.org/2000/svg" xmlns:xlink="http://www.w3.org/1999/xlink" x="0px" y="0px"
	 viewBox="0 0 126 109" style="enable-background:new 0 0 126 109;" xml:space="preserve">
<g>
	<path d="M88.1,41.7c0.1,0.1,0.2,0.1,0.2,0.2s0.1,0.2,0.1,0.3v5.3c0,0.1,0,0.2-0.1,0.3c0,0.1-0.1,0.1-0.2,0.2c-0.1,0-0.1,0-0.2,0
		c-0.1,0-0.1,0-0.2,0v0.2h2.2v-0.2c-0.1,0-0.1,0-0.2,0c-0.1,0-0.1,0-0.2-0.1c-0.1,0-0.2-0.1-0.2-0.2c0-0.1-0.1-0.2-0.1-0.3v-6.3l0,0
		l-1.7,0.1v0.2c0.1,0,0.2,0,0.3,0C87.9,41.7,88,41.7,88.1,41.7"/>
	<path d="M62.2,46.1c0-0.7-0.2-1.3-0.6-1.7c-0.4-0.4-0.9-0.6-1.6-0.6c-0.7,0-1.2,0.2-1.6,0.7c-0.4,0.4-0.6,1-0.6,1.7
		c0,0.4,0.1,0.7,0.2,1c0.1,0.3,0.3,0.5,0.5,0.8c0.2,0.2,0.4,0.4,0.7,0.5s0.5,0.2,0.8,0.2c0.3,0,0.7-0.1,0.9-0.2
		c0.3-0.1,0.5-0.3,0.7-0.5c0.2-0.2,0.3-0.5,0.4-0.8C62.1,46.7,62.2,46.4,62.2,46.1 M60.9,47.7c-0.2,0.4-0.6,0.6-1,0.6
		c-0.2,0-0.5-0.1-0.6-0.2c-0.2-0.1-0.3-0.3-0.4-0.5c-0.1-0.2-0.2-0.4-0.2-0.7c0-0.3-0.1-0.5-0.1-0.8c0-0.2,0-0.5,0.1-0.7
		c0-0.2,0.1-0.5,0.2-0.7c0.1-0.2,0.2-0.4,0.4-0.5S59.7,44,60,44c0.2,0,0.4,0.1,0.6,0.2c0.2,0.1,0.3,0.3,0.4,0.5
		c0.1,0.2,0.2,0.4,0.2,0.7c0,0.3,0.1,0.5,0.1,0.8C61.3,46.8,61.2,47.3,60.9,47.7"/>
	<path d="M66,56.2c-0.1-0.1-0.3-0.2-0.4-0.4c-0.2-0.1-0.4-0.2-0.5-0.3c-0.2-0.1-0.4-0.2-0.6-0.2c-0.2-0.1-0.4-0.2-0.7-0.3
		c-0.3-0.1-0.5-0.3-0.6-0.5c-0.1-0.2-0.2-0.4-0.2-0.7s0.1-0.5,0.3-0.7s0.5-0.3,0.8-0.3c0.3,0,0.5,0.1,0.7,0.2s0.4,0.3,0.5,0.4
		c0.1,0.2,0.2,0.4,0.3,0.6c0.1,0.2,0.2,0.4,0.2,0.7h0.3l0-2.1h-0.3L65.6,53l0,0c-0.2-0.1-0.4-0.2-0.6-0.3s-0.5-0.1-0.8-0.1
		c-0.3,0-0.5,0-0.8,0.1c-0.2,0.1-0.4,0.2-0.6,0.4c-0.2,0.2-0.3,0.4-0.4,0.6c-0.1,0.2-0.2,0.4-0.2,0.7c0,0.4,0.1,0.8,0.3,1
		c0.2,0.3,0.5,0.5,0.8,0.6c0.2,0.1,0.4,0.2,0.7,0.3c0.3,0.1,0.5,0.2,0.7,0.3c0.3,0.1,0.5,0.3,0.7,0.5s0.2,0.5,0.2,0.8
		c0,0.2,0,0.4-0.1,0.5c0,0.1-0.1,0.3-0.2,0.4c-0.1,0.1-0.2,0.2-0.4,0.2C64.6,59,64.5,59,64.2,59c-0.3,0-0.6-0.1-0.8-0.2
		s-0.4-0.3-0.6-0.4c-0.2-0.2-0.3-0.4-0.4-0.6c-0.1-0.2-0.2-0.5-0.3-0.7h-0.3l0.1,2.2h0.3l0.2-0.4l0,0c0.2,0.1,0.5,0.2,0.8,0.3
		c0.3,0.1,0.6,0.1,0.9,0.1c0.6,0,1.2-0.2,1.6-0.6c0.4-0.4,0.6-0.8,0.6-1.4c0-0.2,0-0.4-0.1-0.6C66.2,56.5,66.1,56.4,66,56.2"/>
	<path d="M53.3,54.5c-0.7,0-1.2,0.2-1.6,0.7c-0.4,0.4-0.6,1-0.6,1.7c0,0.4,0.1,0.7,0.2,1c0.1,0.3,0.3,0.5,0.5,0.8
		c0.2,0.2,0.4,0.4,0.7,0.5s0.5,0.2,0.8,0.2c0.3,0,0.7-0.1,0.9-0.2c0.3-0.1,0.5-0.3,0.7-0.5c0.2-0.2,0.3-0.5,0.4-0.8
		c0.1-0.3,0.2-0.6,0.2-0.9c0-0.7-0.2-1.3-0.6-1.7C54.5,54.8,54,54.5,53.3,54.5 M54.3,58.5c-0.2,0.4-0.6,0.6-1,0.6
		c-0.2,0-0.5-0.1-0.6-0.2c-0.2-0.1-0.3-0.3-0.4-0.5c-0.1-0.2-0.2-0.4-0.2-0.7c0-0.3-0.1-0.5-0.1-0.8c0-0.2,0-0.5,0.1-0.7
		c0-0.2,0.1-0.5,0.2-0.7c0.1-0.2,0.2-0.4,0.4-0.5c0.2-0.1,0.4-0.2,0.6-0.2s0.4,0.1,0.6,0.2c0.2,0.1,0.3,0.3,0.4,0.5
		c0.1,0.2,0.2,0.4,0.2,0.7c0,0.3,0.1,0.5,0.1,0.8C54.6,57.6,54.5,58.1,54.3,58.5"/>
	<path d="M67.2,43.9h-1.6v0.2c0.1,0,0.2,0.1,0.4,0.1c0.2,0.1,0.2,0.2,0.2,0.3c0,0.1,0,0.2-0.1,0.3c0,0.1-0.1,0.2-0.1,0.2
		c-0.2,0.5-0.4,0.9-0.5,1.3c-0.2,0.4-0.3,0.7-0.4,1l0,0.1l0-0.1c-0.1-0.4-0.3-0.8-0.6-1.4c-0.2-0.6-0.4-1-0.5-1.3c0,0,0-0.1,0-0.1
		s0-0.1,0-0.1c0-0.1,0.1-0.1,0.2-0.2c0.1,0,0.2,0,0.3-0.1v-0.2h-2v0.2c0.1,0,0.3,0.1,0.4,0.2c0.2,0.1,0.3,0.2,0.3,0.4
		c0.3,0.6,0.5,1.2,0.8,1.8c0.2,0.6,0.5,1.2,0.8,2v0v0c-0.1,0.3-0.3,0.6-0.5,0.9c-0.2,0.4-0.4,0.6-0.6,0.7l0,0l0,0
		c0,0-0.1-0.1-0.1-0.2c0-0.1-0.1-0.1-0.1-0.2c0-0.1-0.1-0.1-0.2-0.1c-0.1,0-0.1,0-0.2,0c-0.1,0-0.2,0-0.3,0.1
		c-0.1,0.1-0.1,0.2-0.1,0.4c0,0.1,0.1,0.2,0.2,0.4c0.1,0.1,0.3,0.2,0.5,0.2c0.1,0,0.2,0,0.3-0.1c0.1,0,0.2-0.1,0.4-0.3
		c0.1-0.1,0.3-0.3,0.4-0.6c0.2-0.2,0.3-0.6,0.5-1c0.2-0.3,0.4-0.9,0.7-1.6c0.3-0.7,0.6-1.5,1-2.4c0.1-0.2,0.2-0.3,0.4-0.4
		c0.1-0.1,0.2-0.1,0.3-0.2L67.2,43.9L67.2,43.9z"/>
	<path d="M59.4,52.2c-0.1-0.1-0.3-0.2-0.6-0.2c-0.5,0-1,0.2-1.3,0.6s-0.5,1-0.5,1.7v0.3H56V55H57v3.4c0,0.1,0,0.2-0.1,0.3
		s-0.1,0.1-0.2,0.2c-0.1,0-0.1,0-0.2,0l-0.2,0v0.2h2.3V59c-0.1,0-0.2,0-0.3,0c-0.1,0-0.2,0-0.3-0.1c-0.1,0-0.2-0.1-0.2-0.2
		s-0.1-0.2-0.1-0.3V55h1.2v-0.4h-1.2v-0.5c0-0.6,0.1-1.1,0.2-1.4c0.1-0.3,0.3-0.5,0.5-0.5h0l0,0c0,0,0.1,0.1,0.1,0.2
		c0,0.1,0.1,0.2,0.2,0.2c0.1,0.1,0.1,0.1,0.2,0.2c0.1,0,0.1,0.1,0.2,0.1c0.1,0,0.2,0,0.3-0.1c0.1-0.1,0.1-0.2,0.1-0.3
		C59.6,52.4,59.5,52.3,59.4,52.2"/>
	<path d="M68.3,48.5c0.3,0,0.6-0.1,0.8-0.2s0.4-0.3,0.6-0.5l0,0h0.1v0c0,0.2,0.1,0.4,0.3,0.5c0.1,0.1,0.3,0.2,0.6,0.2
		c0.1,0,0.3,0,0.4,0c0.1,0,0.2-0.1,0.4-0.1v-0.2c-0.1,0-0.2,0-0.3,0c-0.1,0-0.2,0-0.2,0c-0.1,0-0.2-0.1-0.2-0.2
		c0-0.1-0.1-0.2-0.1-0.3c0-0.4,0-0.8,0-1.1c0-0.3,0-0.7,0-1.2c0-0.3,0-0.6-0.1-0.7c-0.1-0.2-0.2-0.3-0.3-0.4
		c-0.2-0.1-0.3-0.2-0.5-0.2c-0.2,0-0.4,0-0.7,0c-0.2,0-0.4,0-0.6,0.1c-0.2,0.1-0.4,0.1-0.5,0.2c-0.2,0.1-0.3,0.2-0.4,0.3
		c-0.1,0.1-0.1,0.2-0.1,0.4c0,0.1,0,0.2,0.1,0.3c0.1,0.1,0.2,0.1,0.3,0.1c0.2,0,0.3,0,0.4-0.1c0.1-0.1,0.1-0.2,0.1-0.3
		c0-0.1,0-0.2,0-0.3c0-0.1,0-0.2,0-0.3v0l0,0c0.1-0.1,0.1-0.1,0.3-0.2c0.1,0,0.3-0.1,0.4-0.1c0.2,0,0.4,0,0.5,0.1s0.2,0.2,0.3,0.3
		c0.1,0.1,0.1,0.2,0.1,0.3s0,0.2,0,0.2v0.5l0,0c-0.2,0.1-0.4,0.2-0.9,0.3c-0.4,0.1-0.7,0.2-0.8,0.3c-0.1,0-0.2,0.1-0.4,0.2
		c-0.1,0.1-0.2,0.2-0.3,0.2c-0.1,0.1-0.2,0.2-0.2,0.4c0,0.1-0.1,0.3-0.1,0.5c0,0.3,0.1,0.6,0.3,0.8C67.7,48.4,68,48.5,68.3,48.5
		 M68.2,46.8c0.1-0.2,0.2-0.3,0.4-0.4s0.4-0.2,0.6-0.3c0.2-0.1,0.4-0.2,0.7-0.2l0.1,0l0,1.7l0,0c-0.1,0.2-0.3,0.3-0.4,0.4
		c-0.2,0.1-0.4,0.2-0.6,0.2c-0.2,0-0.4-0.1-0.6-0.2c-0.1-0.1-0.2-0.3-0.2-0.6C68,47.1,68.1,46.9,68.2,46.8"/>
	<path d="M78,47.7c0.3,0.3,0.6,0.5,1,0.7c0.4,0.2,0.7,0.2,1.1,0.2c0.6,0,1.1-0.1,1.6-0.4c0.4-0.3,0.8-0.7,1-1.3l-0.3-0.1
		c-0.1,0.2-0.2,0.4-0.3,0.5c-0.1,0.2-0.3,0.3-0.4,0.5c-0.2,0.1-0.4,0.2-0.6,0.3c-0.2,0.1-0.5,0.1-0.7,0.1c-0.3,0-0.7-0.1-0.9-0.2
		c-0.3-0.2-0.5-0.4-0.7-0.6c-0.2-0.3-0.4-0.6-0.5-1c-0.1-0.4-0.2-0.8-0.2-1.2c0-0.5,0-0.9,0.2-1.3c0.1-0.4,0.2-0.7,0.4-1
		c0.2-0.3,0.4-0.5,0.7-0.6c0.3-0.1,0.6-0.2,0.9-0.2c0.3,0,0.5,0.1,0.7,0.2c0.2,0.1,0.4,0.3,0.6,0.5c0.1,0.2,0.3,0.4,0.4,0.7
		c0.1,0.3,0.2,0.5,0.2,0.7h0.3l0-2.3H82l-0.2,0.3l0,0c-0.2-0.1-0.5-0.3-0.7-0.3c-0.3-0.1-0.6-0.1-0.9-0.1c-0.4,0-0.8,0.1-1.2,0.2
		c-0.4,0.2-0.7,0.4-1,0.7s-0.5,0.7-0.7,1.1c-0.2,0.4-0.2,0.9-0.2,1.4s0.1,1,0.2,1.4C77.5,47,77.7,47.4,78,47.7"/>
	<path d="M57.8,48.2c-0.1,0-0.2,0-0.3,0c-0.1,0-0.2-0.1-0.3-0.1c-0.1-0.1-0.2-0.1-0.3-0.2c-0.1-0.1-0.2-0.2-0.4-0.4
		c-0.3-0.4-0.6-0.8-0.8-1.1c-0.2-0.3-0.5-0.7-0.8-1.1l0-0.1l0.1,0c0.2-0.1,0.4-0.2,0.6-0.2c0.2-0.1,0.4-0.2,0.5-0.3
		c0.2-0.1,0.3-0.3,0.3-0.5c0.1-0.2,0.1-0.4,0.1-0.7c0-0.3-0.1-0.5-0.2-0.7s-0.3-0.4-0.4-0.5c-0.2-0.1-0.4-0.2-0.6-0.3
		c-0.2-0.1-0.5-0.1-0.8-0.1h-3v0.2c0.1,0,0.2,0,0.3,0c0.1,0,0.2,0,0.3,0.1c0.1,0,0.2,0.1,0.2,0.2c0,0.1,0,0.2,0,0.3v4.8
		c0,0.1,0,0.2-0.1,0.3S52,48,51.9,48.1c-0.1,0-0.2,0-0.3,0.1c-0.1,0-0.2,0-0.3,0v0.2h2.7v-0.2c-0.1,0-0.2,0-0.3,0
		c-0.1,0-0.2,0-0.3-0.1c-0.1,0-0.2-0.1-0.2-0.2c0-0.1-0.1-0.2-0.1-0.3v-2.2h0.8l0,0c0.4,0.5,0.7,1,1,1.4c0.3,0.4,0.7,1,1.1,1.6h1.7
		L57.8,48.2L57.8,48.2z M53.8,45.1h-0.7v-2.9H54c0.4,0,0.8,0.1,1,0.4c0.2,0.2,0.4,0.6,0.4,1c0,0.5-0.2,0.9-0.4,1.2
		C54.7,45,54.3,45.1,53.8,45.1"/>
	<path d="M95,58.9c-0.1,0-0.2-0.1-0.2-0.2s-0.1-0.2-0.1-0.3V56c0-0.4-0.1-0.8-0.3-1.1c-0.2-0.3-0.5-0.4-0.9-0.4
		c-0.2,0-0.4,0-0.5,0.1c-0.2,0-0.3,0.1-0.4,0.2c-0.1,0.1-0.2,0.2-0.3,0.2c-0.1,0.1-0.2,0.2-0.3,0.3l0,0h-0.1v-0.7l0,0l-1.5,0.1v0.2
		c0.1,0,0.2,0,0.2,0c0.1,0,0.2,0,0.2,0.1c0.1,0.1,0.2,0.1,0.2,0.2s0.1,0.2,0.1,0.3v2.9c0,0.1,0,0.2-0.1,0.3s-0.1,0.1-0.2,0.2
		c-0.1,0-0.1,0-0.2,0l-0.2,0v0.2h2.2V59c-0.1,0-0.1,0-0.2,0c-0.1,0-0.2,0-0.2-0.1c-0.1,0-0.2-0.1-0.2-0.2c0-0.1-0.1-0.2-0.1-0.3
		v-2.7v0c0,0,0.1-0.1,0.1-0.2c0.1-0.1,0.2-0.2,0.3-0.2c0.1-0.1,0.2-0.1,0.4-0.2c0.1,0,0.3-0.1,0.5-0.1c0.2,0,0.4,0.1,0.6,0.3
		c0.2,0.2,0.2,0.4,0.2,0.8v2.4c0,0.1,0,0.2-0.1,0.3c0,0.1-0.1,0.1-0.2,0.2c-0.1,0-0.1,0-0.2,0c-0.1,0-0.1,0-0.2,0v0.2h2.2v-0.2
		c-0.1,0-0.1,0-0.2,0C95.2,58.9,95.1,58.9,95,58.9"/>
	<path d="M96.5,47.2c-0.2,0.3-0.4,0.6-0.6,0.7c-0.2,0.1-0.5,0.2-0.7,0.2c-0.3,0-0.5-0.1-0.7-0.2s-0.4-0.3-0.5-0.4
		c-0.1-0.2-0.2-0.4-0.3-0.7c-0.1-0.2-0.1-0.5-0.1-0.8v0h3.1v-0.3c0-0.3,0-0.5-0.1-0.8c-0.1-0.2-0.2-0.4-0.3-0.6
		c-0.1-0.2-0.3-0.3-0.6-0.4c-0.2-0.1-0.5-0.2-0.8-0.2s-0.6,0.1-0.9,0.2c-0.3,0.1-0.5,0.3-0.6,0.5c-0.2,0.2-0.3,0.5-0.4,0.8
		c-0.1,0.3-0.1,0.6-0.1,0.9c0,0.3,0,0.6,0.1,0.9s0.2,0.6,0.4,0.8c0.2,0.2,0.4,0.4,0.7,0.5c0.3,0.1,0.6,0.2,1,0.2
		c0.4,0,0.8-0.1,1.1-0.3c0.3-0.2,0.6-0.5,0.7-0.8L96.5,47.2z M93.6,45.6c0-0.5,0.1-0.9,0.4-1.2c0.2-0.3,0.5-0.4,0.8-0.4
		c0.2,0,0.4,0,0.5,0.1c0.1,0.1,0.2,0.2,0.3,0.4c0.1,0.1,0.1,0.3,0.2,0.5s0,0.4,0,0.6v0L93.6,45.6L93.6,45.6z"/>
	<path d="M91,48c0,0.1-0.1,0.1-0.2,0.2c-0.1,0-0.1,0-0.2,0c-0.1,0-0.1,0-0.2,0v0.2h2.2v-0.2c-0.1,0-0.1,0-0.2,0
		c-0.1,0-0.1,0-0.2-0.1C92.1,48,92,48,92,47.9s-0.1-0.2-0.1-0.3v-6.3l0,0l-1.7,0.1v0.2c0.1,0,0.2,0,0.3,0c0.2,0,0.3,0.1,0.3,0.1
		c0.1,0.1,0.2,0.1,0.2,0.2c0,0.1,0.1,0.2,0.1,0.3v5.3C91.1,47.8,91.1,47.9,91,48"/>
	<path d="M99,57c-0.1-0.1-0.3-0.2-0.4-0.3c-0.2-0.1-0.4-0.2-0.6-0.2c-0.2-0.1-0.4-0.1-0.5-0.2c-0.1-0.1-0.3-0.1-0.4-0.2
		c-0.1-0.1-0.2-0.2-0.2-0.3c0-0.1-0.1-0.2-0.1-0.4c0-0.2,0.1-0.4,0.2-0.5c0.2-0.1,0.4-0.2,0.6-0.2c0.3,0,0.6,0.1,0.8,0.3
		c0.2,0.2,0.4,0.5,0.4,0.8h0.2l-0.1-1.4h-0.3l-0.1,0.3l0,0c-0.1-0.1-0.3-0.1-0.4-0.2c-0.2,0-0.4-0.1-0.5-0.1c-0.5,0-0.8,0.1-1.1,0.4
		c-0.3,0.2-0.4,0.6-0.4,0.9c0,0.2,0,0.4,0.1,0.5c0.1,0.2,0.2,0.3,0.3,0.4c0.1,0.1,0.3,0.2,0.4,0.3c0.2,0.1,0.3,0.1,0.5,0.2
		c0.2,0.1,0.4,0.1,0.5,0.2c0.2,0.1,0.3,0.1,0.4,0.2c0.1,0.1,0.2,0.2,0.2,0.3c0.1,0.1,0.1,0.2,0.1,0.4c0,0.3-0.1,0.5-0.3,0.6
		C98.4,59,98.1,59,97.8,59c-0.2,0-0.4,0-0.6-0.2c-0.2-0.1-0.3-0.2-0.4-0.4c-0.1-0.1-0.2-0.3-0.3-0.4c-0.1-0.2-0.1-0.3-0.2-0.4h-0.2
		l0,1.5h0.3l0.1-0.3l0.1,0c0.1,0.1,0.2,0.2,0.5,0.3c0.2,0.1,0.5,0.1,0.7,0.1c0.5,0,0.9-0.1,1.2-0.4c0.3-0.3,0.5-0.6,0.5-1
		c0-0.2,0-0.4-0.1-0.5C99.2,57.3,99.2,57.1,99,57"/>
	<path d="M71.3,58.8c-0.1-0.1-0.2-0.1-0.2-0.2c0-0.1-0.1-0.2-0.1-0.3v-3.6l0,0l-1.6,0.1v0.2c0.1,0,0.2,0,0.3,0c0.1,0,0.2,0,0.3,0.1
		c0.1,0.1,0.2,0.1,0.2,0.2c0,0.1,0.1,0.2,0.1,0.3v2.6c0,0.1-0.1,0.1-0.2,0.2s-0.1,0.2-0.2,0.2c-0.1,0.1-0.2,0.1-0.4,0.2
		c-0.1,0.1-0.3,0.1-0.5,0.1c-0.2,0-0.4-0.1-0.6-0.3c-0.2-0.2-0.2-0.4-0.2-0.8v-3.2l0,0l-1.5,0.1V55c0.1,0,0.2,0,0.2,0
		c0.1,0,0.2,0,0.2,0.1c0.1,0.1,0.2,0.1,0.2,0.2s0.1,0.2,0.1,0.3v2.2c0,0.5,0.1,0.9,0.3,1.1c0.2,0.2,0.5,0.4,0.9,0.4
		c0.2,0,0.4,0,0.5-0.1c0.1,0,0.3-0.1,0.4-0.2c0.1-0.1,0.2-0.2,0.3-0.2c0.1-0.1,0.2-0.2,0.2-0.2l0,0h0.1v0.6l0,0l1.4-0.1v-0.2
		c-0.1,0-0.2,0-0.2,0C71.4,58.9,71.3,58.8,71.3,58.8"/>
	<path d="M106,47.2c-0.2,0.3-0.4,0.6-0.6,0.7c-0.2,0.1-0.5,0.2-0.7,0.2c-0.3,0-0.5-0.1-0.7-0.2s-0.4-0.3-0.5-0.4
		c-0.1-0.2-0.2-0.4-0.3-0.7c-0.1-0.2-0.1-0.5-0.1-0.8v0h3.1v-0.3c0-0.3,0-0.5-0.1-0.8c-0.1-0.2-0.2-0.4-0.3-0.6
		c-0.1-0.2-0.3-0.3-0.6-0.4c-0.2-0.1-0.5-0.2-0.8-0.2s-0.6,0.1-0.9,0.2c-0.3,0.1-0.5,0.3-0.6,0.5c-0.2,0.2-0.3,0.5-0.4,0.8
		c-0.1,0.3-0.1,0.6-0.1,0.9c0,0.3,0,0.6,0.1,0.9s0.2,0.6,0.4,0.8c0.2,0.2,0.4,0.4,0.7,0.5c0.3,0.1,0.6,0.2,1,0.2
		c0.4,0,0.8-0.1,1.1-0.3c0.3-0.2,0.6-0.5,0.7-0.8L106,47.2z M103.1,45.6c0-0.5,0.1-0.9,0.4-1.2c0.2-0.3,0.5-0.4,0.8-0.4
		c0.2,0,0.4,0,0.5,0.1c0.1,0.1,0.2,0.2,0.3,0.4c0.1,0.1,0.1,0.3,0.2,0.5s0,0.4,0,0.6v0L103.1,45.6L103.1,45.6z"/>
	<path d="M87.8,54.5c-0.7,0-1.2,0.2-1.6,0.7c-0.4,0.4-0.6,1-0.6,1.7c0,0.4,0.1,0.7,0.2,1c0.1,0.3,0.3,0.5,0.5,0.8
		c0.2,0.2,0.4,0.4,0.7,0.5s0.5,0.2,0.8,0.2c0.3,0,0.7-0.1,0.9-0.2c0.3-0.1,0.5-0.3,0.7-0.5c0.2-0.2,0.3-0.5,0.4-0.8
		c0.1-0.3,0.2-0.6,0.2-0.9c0-0.7-0.2-1.3-0.6-1.7C89,54.8,88.4,54.5,87.8,54.5 M88.8,58.5c-0.2,0.4-0.6,0.6-1,0.6
		c-0.2,0-0.5-0.1-0.6-0.2c-0.2-0.1-0.3-0.3-0.4-0.5c-0.1-0.2-0.2-0.4-0.2-0.7c0-0.3-0.1-0.5-0.1-0.8c0-0.2,0-0.5,0.1-0.7
		c0-0.2,0.1-0.5,0.2-0.7c0.1-0.2,0.2-0.4,0.4-0.5c0.2-0.1,0.4-0.2,0.6-0.2c0.2,0,0.4,0.1,0.6,0.2c0.2,0.1,0.3,0.3,0.4,0.5
		c0.1,0.2,0.2,0.4,0.2,0.7c0,0.3,0.1,0.5,0.1,0.8C89.1,57.6,89,58.1,88.8,58.5"/>
	<path d="M101.2,48c-0.1-0.1-0.2-0.2-0.4-0.2c-0.1-0.1-0.3-0.1-0.4-0.1c-0.1,0-0.3,0-0.5,0s-0.4,0-0.6,0c-0.1,0-0.2,0-0.4,0
		c-0.1,0-0.2,0-0.3,0c-0.1,0-0.2-0.1-0.3-0.1c-0.1-0.1-0.1-0.2-0.1-0.3c0-0.1,0-0.2,0.1-0.3c0.1-0.1,0.2-0.1,0.2-0.1h0h0.6
		c0.4,0,0.8-0.1,1.1-0.4c0.3-0.3,0.5-0.6,0.5-1c0-0.2,0-0.3-0.1-0.5c0-0.2-0.1-0.3-0.2-0.4l0,0v-0.1h1.1v-0.4H100
		c-0.1,0-0.3-0.1-0.4-0.1c-0.1,0-0.3,0-0.4,0c-0.5,0-0.9,0.1-1.2,0.4c-0.3,0.3-0.5,0.6-0.5,1c0,0.3,0.1,0.5,0.2,0.7s0.4,0.4,0.7,0.5
		l0,0v0.1l0,0c-0.2,0.1-0.4,0.2-0.5,0.3c-0.1,0.1-0.2,0.3-0.2,0.4c0,0.1,0,0.2,0.1,0.3c0,0.1,0.1,0.2,0.2,0.2c0.1,0,0.2,0.1,0.2,0.1
		c0.1,0,0.2,0.1,0.3,0.1l0,0v0.2h0c-0.4,0-0.7,0.1-0.9,0.3c-0.2,0.2-0.4,0.4-0.4,0.7c0,0.4,0.2,0.7,0.5,0.8c0.3,0.2,0.8,0.3,1.5,0.3
		c0.4,0,0.8,0,1.1-0.1c0.3-0.1,0.5-0.2,0.7-0.3c0.2-0.1,0.3-0.3,0.4-0.5c0.1-0.2,0.1-0.4,0.1-0.6s0-0.4-0.1-0.5
		C101.4,48.3,101.3,48.1,101.2,48 M98.3,45.2c0-0.2,0-0.3,0-0.5c0-0.2,0.1-0.3,0.1-0.4c0.1-0.1,0.2-0.2,0.3-0.3
		C98.9,44,99,44,99.2,44c0.3,0,0.5,0.1,0.7,0.3c0.2,0.2,0.2,0.5,0.2,0.9c0,0.3-0.1,0.6-0.2,0.8c-0.2,0.2-0.4,0.3-0.7,0.3
		c-0.3,0-0.5-0.1-0.6-0.4C98.4,45.9,98.3,45.6,98.3,45.2 M100.5,49.9c-0.3,0.2-0.6,0.3-1.1,0.3c-0.3,0-0.5,0-0.7-0.1
		c-0.2,0-0.3-0.1-0.5-0.2c-0.1-0.1-0.2-0.2-0.3-0.3c0-0.1-0.1-0.2-0.1-0.3c0-0.3,0.1-0.5,0.2-0.6c0.2-0.2,0.4-0.3,0.7-0.3h0
		c0.4,0,0.7,0,0.9,0c0.3,0,0.4,0,0.5,0c0.2,0,0.3,0.1,0.4,0.2c0.1,0.1,0.1,0.3,0.1,0.5C100.9,49.5,100.8,49.8,100.5,49.9"/>
	<path d="M75.2,54.6c-0.2,0-0.4,0.1-0.6,0.2c-0.2,0.1-0.4,0.3-0.6,0.6l0,0h-0.1v-0.7l0,0l-1.5,0.1v0.2c0.1,0,0.2,0,0.2,0
		c0.1,0,0.2,0,0.2,0.1c0.1,0.1,0.2,0.1,0.2,0.2c0,0.1,0.1,0.2,0.1,0.3v2.9c0,0.1,0,0.2-0.1,0.3c0,0.1-0.1,0.1-0.2,0.2
		c-0.1,0-0.1,0-0.2,0l-0.2,0v0.2h2.3V59c-0.1,0-0.2,0-0.3,0c-0.1,0-0.2,0-0.3-0.1c-0.1,0-0.2-0.1-0.2-0.2c0-0.1-0.1-0.2-0.1-0.3
		v-2.7v0c0.1-0.2,0.3-0.4,0.5-0.5c0.2-0.1,0.4-0.2,0.5-0.2h0.1l0,0.1c0,0.1,0,0.1,0,0.2c0,0,0,0.1,0,0.2c0,0.1,0,0.2,0.1,0.3
		c0.1,0.1,0.2,0.1,0.4,0.1c0.1,0,0.2,0,0.3-0.2c0.1-0.1,0.1-0.2,0.1-0.4c0-0.2-0.1-0.4-0.2-0.5C75.5,54.6,75.4,54.6,75.2,54.6"/>
	<path d="M72.5,48c0,0.1-0.1,0.1-0.2,0.2c-0.1,0-0.1,0-0.2,0c-0.1,0-0.1,0-0.2,0v0.2H74v-0.2c-0.1,0-0.1,0-0.2,0
		c-0.1,0-0.1,0-0.2-0.1c-0.1,0-0.2-0.1-0.2-0.2s-0.1-0.2-0.1-0.3v-6.3l0,0l-1.7,0.1v0.2c0.1,0,0.2,0,0.3,0c0.2,0,0.3,0.1,0.3,0.1
		c0.1,0.1,0.2,0.1,0.2,0.2c0,0.1,0.1,0.2,0.1,0.3v5.3C72.6,47.8,72.5,47.9,72.5,48"/>
	<path d="M87,47.8c0.2-0.2,0.3-0.5,0.4-0.8s0.2-0.6,0.2-0.9c0-0.7-0.2-1.3-0.6-1.7c-0.4-0.4-0.9-0.6-1.6-0.6c-0.7,0-1.2,0.2-1.6,0.7
		c-0.4,0.4-0.6,1-0.6,1.7c0,0.4,0.1,0.7,0.2,1c0.1,0.3,0.3,0.5,0.5,0.8c0.2,0.2,0.4,0.4,0.7,0.5c0.3,0.1,0.5,0.2,0.8,0.2
		c0.3,0,0.7-0.1,0.9-0.2C86.5,48.3,86.8,48.1,87,47.8 M85.4,48.3c-0.2,0-0.5-0.1-0.6-0.2c-0.2-0.1-0.3-0.3-0.4-0.5
		c-0.1-0.2-0.2-0.4-0.2-0.7c0-0.3-0.1-0.5-0.1-0.8c0-0.2,0-0.5,0.1-0.7c0-0.2,0.1-0.5,0.2-0.7c0.1-0.2,0.2-0.4,0.4-0.5
		s0.4-0.2,0.6-0.2c0.2,0,0.4,0.1,0.6,0.2c0.2,0.1,0.3,0.3,0.4,0.5c0.1,0.2,0.2,0.4,0.2,0.7s0.1,0.5,0.1,0.8c0,0.7-0.1,1.2-0.4,1.6
		C86.1,48.1,85.8,48.3,85.4,48.3"/>
	<path d="M84.1,58.7c-0.2,0.1-0.5,0.2-0.7,0.2s-0.5-0.1-0.7-0.2s-0.4-0.3-0.5-0.4c-0.1-0.2-0.2-0.4-0.3-0.7
		c-0.1-0.2-0.1-0.5-0.1-0.8v0h3.1v-0.3c0-0.3,0-0.5-0.1-0.8c-0.1-0.2-0.2-0.4-0.3-0.6c-0.1-0.2-0.3-0.3-0.6-0.4
		c-0.2-0.1-0.5-0.2-0.8-0.2s-0.6,0.1-0.9,0.2c-0.3,0.1-0.5,0.3-0.6,0.5c-0.2,0.2-0.3,0.5-0.4,0.8c-0.1,0.3-0.1,0.6-0.1,0.9
		c0,0.3,0,0.6,0.1,0.9c0.1,0.3,0.2,0.6,0.4,0.8c0.2,0.2,0.4,0.4,0.7,0.5c0.3,0.1,0.6,0.2,1,0.2c0.4,0,0.8-0.1,1.1-0.3
		c0.3-0.2,0.6-0.5,0.7-0.8L84.7,58C84.5,58.3,84.3,58.6,84.1,58.7 M81.8,56.4c0-0.5,0.1-0.9,0.4-1.2c0.2-0.3,0.5-0.4,0.8-0.4
		c0.2,0,0.4,0,0.5,0.1c0.1,0.1,0.2,0.2,0.3,0.4c0.1,0.1,0.1,0.3,0.2,0.5s0,0.4,0,0.6v0L81.8,56.4L81.8,56.4z"/>
	<path d="M80.2,58.8c-0.1-0.1-0.2-0.2-0.4-0.2c-0.1-0.1-0.3-0.1-0.4-0.1c-0.1,0-0.3,0-0.5,0c-0.2,0-0.4,0-0.6,0c-0.1,0-0.2,0-0.4,0
		c-0.1,0-0.2,0-0.3,0c-0.1,0-0.2-0.1-0.3-0.1s-0.1-0.2-0.1-0.3c0-0.1,0-0.2,0.1-0.3c0.1-0.1,0.2-0.1,0.2-0.1h0h0.6
		c0.4,0,0.8-0.1,1.1-0.4c0.3-0.3,0.5-0.6,0.5-1c0-0.2,0-0.3-0.1-0.5c0-0.2-0.1-0.3-0.2-0.4l0,0V55h1.1v-0.4H79
		c-0.1,0-0.3-0.1-0.4-0.1s-0.3,0-0.4,0c-0.5,0-0.9,0.1-1.2,0.4c-0.3,0.3-0.5,0.6-0.5,1c0,0.3,0.1,0.5,0.2,0.7
		c0.2,0.2,0.4,0.4,0.7,0.5l0,0v0.1l0,0c-0.2,0.1-0.4,0.2-0.5,0.3c-0.1,0.1-0.2,0.3-0.2,0.4c0,0.1,0,0.2,0.1,0.3
		c0,0.1,0.1,0.2,0.2,0.2c0.1,0,0.2,0.1,0.2,0.1c0.1,0,0.2,0.1,0.3,0.1l0,0v0.2h0c-0.4,0-0.7,0.1-0.9,0.3c-0.2,0.2-0.4,0.4-0.4,0.7
		c0,0.4,0.2,0.7,0.5,0.8c0.3,0.2,0.8,0.3,1.5,0.3c0.4,0,0.8,0,1.1-0.1c0.3-0.1,0.5-0.2,0.7-0.3c0.2-0.1,0.3-0.3,0.4-0.5
		s0.1-0.4,0.1-0.6s0-0.4-0.1-0.5C80.4,59,80.3,58.9,80.2,58.8 M77.2,56c0-0.2,0-0.3,0-0.5c0-0.2,0.1-0.3,0.1-0.4
		c0.1-0.1,0.2-0.2,0.3-0.3c0.1-0.1,0.2-0.1,0.4-0.1c0.3,0,0.5,0.1,0.7,0.3c0.2,0.2,0.2,0.5,0.2,0.9c0,0.3-0.1,0.6-0.2,0.8
		c-0.2,0.2-0.4,0.3-0.7,0.3c-0.3,0-0.5-0.1-0.6-0.4C77.3,56.7,77.2,56.4,77.2,56 M79.3,60.7c-0.3,0.2-0.6,0.3-1.1,0.3
		c-0.3,0-0.5,0-0.7-0.1c-0.2,0-0.3-0.1-0.5-0.2c-0.1-0.1-0.2-0.2-0.3-0.3c0-0.1-0.1-0.2-0.1-0.3c0-0.3,0.1-0.5,0.2-0.6
		c0.2-0.2,0.4-0.3,0.7-0.3h0c0.4,0,0.7,0,0.9,0c0.3,0,0.5,0,0.5,0c0.2,0,0.3,0.1,0.4,0.2c0.1,0.1,0.1,0.3,0.1,0.5
		C79.8,60.3,79.6,60.5,79.3,60.7"/>
	<rect x="51.4" y="63.3" width="54.6" height="0.2"/>
	<path d="M53.8,67.9h-0.3l-0.3-0.6h-1.4l-0.3,0.6h-0.3l1.1-2.5h0.3L53.8,67.9z M52.6,65.8L52,67h1.1L52.6,65.8z"/>
	<path d="M55.2,67.9h-0.9v-2.5h0.9c0.8,0,1.3,0.5,1.3,1.2C56.5,67.4,56,67.9,55.2,67.9 M55.2,65.7h-0.6v2h0.6c0.6,0,1-0.4,1-1
		C56.2,66.2,55.8,65.7,55.2,65.7"/>
	<polygon points="58.9,65.5 59.2,65.5 58.1,68 57.9,68 56.8,65.5 57.1,65.5 58,67.6 	"/>
	<path d="M61.7,67.9h-0.3l-0.3-0.6h-1.3l-0.3,0.6h-0.3l1.1-2.5h0.3L61.7,67.9z M60.4,65.8L59.9,67H61L60.4,65.8z"/>
	<polygon points="64,65.5 64.3,65.5 64.3,67.9 64.1,67.9 62.5,65.9 62.5,67.9 62.2,67.9 62.2,65.5 62.5,65.5 64,67.5 	"/>
	<path d="M66.2,68c-0.7,0-1.2-0.6-1.2-1.3s0.5-1.3,1.2-1.3c0.4,0,0.7,0.2,1,0.4L67,66c-0.2-0.2-0.4-0.3-0.8-0.3c-0.5,0-1,0.4-1,1
		s0.4,1,1,1c0.3,0,0.6-0.1,0.8-0.4l0.2,0.2C66.9,67.8,66.6,68,66.2,68"/>
	<rect x="67.8" y="65.5" width="0.3" height="2.5"/>
	<polygon points="70.7,65.5 70.9,65.5 70.9,67.9 70.7,67.9 69.1,65.9 69.1,67.9 68.8,67.9 68.8,65.5 69.1,65.5 70.7,67.5 	"/>
	<path d="M72.8,68c-0.8,0-1.2-0.6-1.2-1.3c0-0.7,0.5-1.3,1.2-1.3c0.4,0,0.7,0.1,0.9,0.3L73.5,66c-0.2-0.2-0.4-0.3-0.8-0.3
		c-0.5,0-0.9,0.5-0.9,1c0,0.6,0.4,1,1,1c0.3,0,0.5-0.1,0.7-0.2v-0.6h-0.8v-0.2h1v1C73.6,67.8,73.2,68,72.8,68"/>
	<path d="M76.5,66.6c0.6,0.1,0.8,0.3,0.8,0.7c0,0.4-0.4,0.7-0.8,0.7c-0.4,0-0.7-0.1-1-0.4l0.2-0.2c0.3,0.2,0.5,0.4,0.8,0.4
		c0.3,0,0.6-0.2,0.6-0.4c0-0.2-0.1-0.4-0.6-0.5c-0.6-0.1-0.8-0.3-0.8-0.7c0-0.4,0.3-0.7,0.8-0.7c0.4,0,0.6,0.1,0.9,0.3L77.1,66
		c-0.2-0.2-0.5-0.3-0.7-0.3c-0.3,0-0.5,0.2-0.5,0.4C75.9,66.3,76,66.5,76.5,66.6"/>
	<path d="M80,66.9c0,0.7-0.4,1.1-1,1.1c-0.6,0-1-0.4-1-1.1v-1.4h0.3v1.4c0,0.5,0.3,0.8,0.8,0.8c0.4,0,0.7-0.3,0.7-0.8v-1.4H80
		L80,66.9L80,66.9z"/>
	<path d="M82.4,67.9l-0.7-1H81v1h-0.3v-2.5h1.1c0.5,0,0.9,0.3,0.9,0.7c0,0.4-0.3,0.6-0.7,0.7l0.8,1H82.4z M81.7,65.7H81v1h0.8
		c0.4,0,0.6-0.2,0.6-0.5C82.4,65.9,82.1,65.7,81.7,65.7"/>
	<path d="M84.5,68c-0.8,0-1.2-0.6-1.2-1.3c0-0.7,0.5-1.3,1.2-1.3c0.4,0,0.7,0.1,0.9,0.3L85.2,66c-0.2-0.2-0.4-0.3-0.8-0.3
		c-0.5,0-0.9,0.5-0.9,1c0,0.6,0.4,1,1,1c0.3,0,0.5-0.1,0.7-0.2v-0.6h-0.8v-0.2h1v1C85.2,67.8,84.9,68,84.5,68"/>
	<rect x="86.2" y="65.5" width="0.3" height="2.5"/>
	<path d="M88.4,68c-0.7,0-1.2-0.6-1.2-1.3s0.5-1.3,1.2-1.3c0.4,0,0.7,0.2,1,0.4L89.2,66c-0.2-0.2-0.4-0.3-0.8-0.3c-0.5,0-1,0.4-1,1
		s0.4,1,1,1c0.3,0,0.6-0.1,0.8-0.4l0.2,0.2C89.1,67.8,88.8,68,88.4,68"/>
	<path d="M92.2,67.9h-0.3l-0.3-0.6h-1.3L90,67.9h-0.3l1.1-2.5h0.3L92.2,67.9z M90.9,65.8L90.4,67h1.1L90.9,65.8z"/>
	<polygon points="92.8,65.5 93,65.5 93,67.7 94.4,67.7 94.4,67.9 92.8,67.9 	"/>
	<path d="M97.3,68c-0.7,0-1.2-0.6-1.2-1.3s0.5-1.3,1.2-1.3c0.4,0,0.7,0.2,1,0.4L98,66c-0.2-0.2-0.4-0.3-0.8-0.3c-0.5,0-1,0.4-1,1
		s0.4,1,1,1c0.3,0,0.6-0.1,0.8-0.4l0.2,0.2C98,67.8,97.7,68,97.3,68"/>
	<path d="M101.1,67.9h-0.3l-0.3-0.6h-1.3l-0.3,0.6h-0.3l1.1-2.5h0.3L101.1,67.9z M99.8,65.8L99.3,67h1.1L99.8,65.8z"/>
	<path d="M103.3,67.9l-0.7-1h-0.7v1h-0.3v-2.5h1.1c0.5,0,0.9,0.3,0.9,0.7c0,0.4-0.3,0.6-0.7,0.7l0.8,1H103.3z M102.7,65.7h-0.8v1
		h0.8c0.4,0,0.6-0.2,0.6-0.5C103.3,65.9,103.1,65.7,102.7,65.7"/>
</g>
<g>
	<polygon points="106,65.7 104.5,65.7 104.5,66.6 105.9,66.6 105.9,66.8 104.5,66.8 104.5,67.7 106.1,67.7 106.1,67.9 104.3,67.9 
		104.3,65.5 106,65.5 	"/>
	<path d="M27.3,29.8c0.1,0.1,0,0.3-0.3,0.6h1.1c-0.2-0.2-0.3-0.5-0.3-0.6c0.1-0.1,0.3,0,0.6,0.2v-1c-0.3,0.2-0.5,0.3-0.6,0.2
		c-0.1-0.1,0-0.3,0.3-0.6H27c0.2,0.2,0.3,0.5,0.3,0.6c-0.1,0.1-0.3,0-0.6-0.2v1C27,29.9,27.2,29.8,27.3,29.8 M19.7,53.9v0.6
		c0.4,0,0.8,0,1.1,0c0,0,0.1,0,0.1,0l-0.2-0.4C20.5,54,19.9,53.9,19.7,53.9 M16.5,51.6v3.1c0.8-0.1,1.8-0.1,2.8-0.2v-2.9
		c0.2-0.1,0.3-0.2,0.3-0.4h-3.4C16.3,51.4,16.4,51.6,16.5,51.6 M17.7,48.7v-3.3h-1.5c0,0.2,0.2,0.3,0.3,0.4v3H17.7z M15.8,37.5
		c-0.1,0.1-0.2,0.4-0.2,0.8c0,0.4,0.2,0.9,0.5,1.4h1.7v-2.2h-1.7C15.9,37.4,15.8,37.5,15.8,37.5 M15.3,41c0,0.3,0.2,1.2,0.6,1.8h1.9
		v-2.6h-2C15.4,40.4,15.3,40.6,15.3,41 M16.3,50.8L16.3,50.8h1.4v-1.6h-1.2l0,0h-0.4c-0.1,0-0.2,0.1-0.2,0.2v0
		c0,0.1,0.1,0.2,0.2,0.2h0.2L15,50.2L16.3,50.8z M15.4,55c0.1-0.1,0.3-0.1,0.5-0.2c0.1,0,0.2,0,0.3-0.1V54c-0.3,0-0.5,0.1-0.6,0.3
		C15.3,54.5,15.4,54.8,15.4,55 M16.3,44.8C16.3,44.9,16.3,44.9,16.3,44.8h1.4v-1.6h-1.4l0,0h-0.2c-0.1,0-0.2,0.1-0.2,0.2v0
		c0,0.1,0.1,0.2,0.2,0.2h0.2L15,44.3L16.3,44.8z M18.2,50.8h1.3l1.3-0.6l-1.3-0.6h0.2c0.1,0,0.2-0.1,0.2-0.2v0
		c0-0.1-0.1-0.2-0.2-0.2h-0.4l0,0h-1.2V50.8z M27.6,30.6c-0.3,0-0.6,0.3-0.6,0.6c0,0.3,0.3,0.6,0.6,0.6c0.3,0,0.6-0.3,0.6-0.6
		C28.2,30.9,27.9,30.6,27.6,30.6 M34.7,57.1c3.6,2.2,4.7,4.7,4.7,4.4l-1.3-3.6C37,57.7,35.9,57.4,34.7,57.1 M18.2,48.7h1.2v-3
		c0.2-0.1,0.3-0.2,0.3-0.4h-1.5V48.7z M15.9,57.1L15.9,57.1L15.9,57.1c0.2,0,0.3,0.1,0.4,0.1c0-0.2,0-0.4,0.2-0.6
		c0.5-0.7,1.8-0.9,4-0.7l1,0.1l-0.4-0.9c-0.1,0-4.1,0-5.1,0.3c-0.3,0.1-0.7,0.3-0.8,0.6c-0.1,0.2-0.1,0.4,0.1,0.7
		C15.4,56.8,15.6,57,15.9,57.1 M25.7,45.9c0,2.8,2.8,6.3,11.3,9.8c0,0,4.6,1.9,12,3.3c-1.1-1.4-2.6-3.3-4-5
		c-2.1-1.1-3.7-2.2-4.9-3.2c1,0.6,2.3,1.2,3.8,1.8c-0.7-0.9-1.3-1.6-1.8-2.2c-2.8-1.3-4.8-2.6-6.3-3.9c1.3,0.8,3,1.6,5.1,2.3
		c-4.2-6.7-10.6-6.7-10.6-6.7C27.2,42.2,25.7,43.5,25.7,45.9 M38.2,57.1c-0.5-0.2-1-0.5-1.5-0.7C31.4,54.2,25,50.6,25,45.9
		c0-1.4,0.5-2.5,1.4-3.3c0.6-0.5,1.4-0.9,2.4-1c-0.5-0.6-1-1.4-1-2.5c0-0.2,0-0.3,0-0.4c0.8-0.4,2.4-1,3.6-1.2l0.3,0l0,0
		c-0.2-0.1-0.4-0.2-0.7-0.3c-1.2-0.2-3.8,0.6-3.8,0.6l-0.1,0l-0.6-0.5l0.4,0.1l0.3,0c0.5-0.1,2.7-0.7,3.9-0.6
		c0.4,0.1,0.7,0.2,0.9,0.4c0,0,0.6,0.4,0.1,1.6c0.2-0.1,1.2-0.7,1.2-1.9c0-1.3-1.9-1.9-2.6-2c-0.4-0.1-0.8-0.1-1.3,0
		c0.1,0.1,0.2,0.3,0.2,0.5c0,0.5-0.4,0.7-0.4,0.8l-0.1-0.2L29,35.8c0,0,0.2-0.1,0.2-0.4c0-0.3-0.3-0.4-0.4-0.5
		c-0.4,0.1-0.8,0.1-1.1,0.2c-0.1,0-0.2,0.2-0.2,0.4c0,0.3,0.4,0.5,0.4,0.5l-0.1,0.3c0,0-0.6-0.2-0.6-0.8c0-0.1,0-0.2,0-0.3
		c-0.3,0.1-0.4,0.2-0.5,0.3l-0.3-0.2c0.3-0.4,1.4-0.7,2-0.8c0.8-0.1,1.6-0.2,2.1-0.1c0,0,0,0,0,0s-0.1-0.1-0.2-0.2
		c0.6-0.7,0.8-1.6,0.6-2.4c-0.1-0.5-0.4-0.9-0.8-1.1c-0.4-0.2-0.9-0.2-1.4,0l-0.2,0.1l0.2,0.4l0.2-0.1c0.4-0.1,0.7-0.1,1,0
		c0.3,0.1,0.5,0.4,0.6,0.8c0.2,0.7,0,1.6-0.6,2.1c-0.1,0-0.2-0.1-0.4-0.1l0.2-0.1c0.6-0.5,0.6-1.4,0.3-1.9c-0.3-0.4-0.7-0.6-1.2-0.4
		l-0.2,0.1l0.1,0.3l0.2-0.1c0.4-0.1,0.7-0.1,0.9,0.2c0.2,0.4,0.2,1-0.2,1.5h-1.4c-0.2-0.2-0.3-0.4-0.2-0.5c0.1-0.1,0.3,0,0.5,0.2
		v-0.9c-0.2,0.2-0.5,0.3-0.5,0.2c-0.1-0.1,0-0.3,0.2-0.5h-1c0.2,0.2,0.3,0.4,0.2,0.5c-0.1,0.1-0.3,0-0.5-0.2v0.9
		c0.2-0.2,0.5-0.3,0.5-0.2c0.1,0.1,0,0.3-0.2,0.5h-1.4c-0.4-0.4-0.4-1.1-0.2-1.5c0.2-0.3,0.5-0.4,0.9-0.2l0.2,0.1l0.1-0.3l-0.2-0.1
		c-0.5-0.2-1-0.1-1.2,0.4c-0.3,0.5-0.3,1.4,0.3,1.9l0.2,0.2c-0.1,0-0.2,0.1-0.3,0.1c-0.6-0.6-0.9-1.5-0.7-2.2
		c0.1-0.4,0.3-0.7,0.6-0.8c0.3-0.2,0.6-0.2,1,0l0.2,0.1l0.2-0.4l-0.2-0.1c-0.5-0.2-1-0.2-1.4,0s-0.7,0.6-0.8,1.1
		c-0.2,0.9,0,1.9,0.7,2.6c-1.9,1.2-2.9,3.9-2.9,6.2C21.9,46.7,28.7,56.1,38.2,57.1 M28.4,35.1c0.2,0,0.3,0.1,0.3,0.3
		c0,0.2-0.1,0.3-0.3,0.3s-0.3-0.1-0.3-0.3C28.1,35.3,28.2,35.1,28.4,35.1 M20.1,37.5c-0.1-0.1-0.1-0.1-0.2-0.1h-1.7v2.2h1.6
		c0.2-0.4,0.5-1,0.5-1.4C20.3,37.9,20.2,37.6,20.1,37.5 M18.2,44.9h1.3l1.3-0.6l-1.3-0.6h0.2c0.1,0,0.2-0.1,0.2-0.2v0
		c0-0.1-0.1-0.2-0.2-0.2h-0.2l0,0h-1.4L18.2,44.9L18.2,44.9z M18.2,42.8H20c0.3-0.6,0.6-1.4,0.6-1.8c0-0.4-0.2-0.6-0.4-0.8h-2
		L18.2,42.8L18.2,42.8z M29.3,55.3c-1.6-0.8-3-1.6-4.2-2.4c-0.7,0.9-2,1.9-3.7,1.4l0,0.1l1.1,2.7C24.9,57.6,28.8,56.3,29.3,55.3
		 M23.5,63.4c-0.4,0-0.8,0.2-1.1,0.5c-0.1,0.2-0.2,0.4-0.2,0.6c0.4-0.3,1-0.4,1.5-0.5l0,0c0-0.1,0-0.3-0.1-0.4
		C23.5,63.6,23.5,63.5,23.5,63.4 M25.3,66.7L25.3,66.7c-0.1,0-0.1,0-0.2,0c-0.2,0.2-0.3,0.4-0.4,0.5c-0.1,0.2-0.1,0.5,0,0.7
		c0.3-0.3,1-0.3,1.4-0.4C25.9,67.1,25.5,66.8,25.3,66.7 M27.3,67.4L27.3,67.4c0,0,0,0.1-0.1,0.1c-0.1,0.1-0.1,0.2-0.2,0.4h1.3
		l-0.5-1.4C27.7,66.8,27.5,67.1,27.3,67.4 M31.2,66.6L31.2,66.6L31.2,66.6c0.1-0.4,0-0.9-0.2-1.2c-0.2-0.3-0.5-0.4-0.8-0.4
		c-0.7,0-1.4,0.4-2,1.1l0.7,1.8h1.8c0.2-0.2,0.5-0.5,0.6-1C31.2,66.9,31.2,66.8,31.2,66.6 M14.7,64.5c-0.5,0-0.7,0.4-0.5,0.8
		l0.7,1.9c0.2,0.4,0.7,0.8,1.2,0.8h4.8l-1.3-3.4L14.7,64.5L14.7,64.5z M24.8,66.3c-0.1-0.2,0-0.4,0-0.5l0-0.1l0.1,0
		c0.9-0.1,1.5-0.3,2.2-0.7l-0.1-0.4c-0.2,0-0.4,0-0.7,0c-0.4,0-0.9,0-1.4,0.1c0,0-0.3,0.1-0.5,0.1c-0.3,0-0.5-0.1-0.6-0.2
		c0,0-0.1,0-0.1,0c-1.1,0-1.6,0.4-1.8,0.6l0,0c-0.1-0.2-0.2-0.4-0.1-0.6H20l1.3,3.4h2.9c-0.1-0.3,0-0.6,0-0.9
		C24.4,66.7,24.6,66.5,24.8,66.3C24.8,66.3,24.8,66.3,24.8,66.3 M16.7,57.1l0,0.5l0.1,0.1c0-0.6,0.6-1.1,1.8-1.5
		c0.1,0,0.1,0,0.2-0.1c-1,0-1.7,0.3-2,0.6C16.8,56.9,16.7,57,16.7,57.1 M35.1,64.5l1.3,3.4h6.5l-1.3-3.4H35.1z M48,65.3
		c-0.2-0.4-0.7-0.8-1.2-0.8h-4.8l1.3,3.4h4.8c0.5,0,0.7-0.4,0.5-0.8L48,65.3z M32.5,64.5c0.6,0.6,1.2,1.6,1.4,2.5
		c0.1,0.4-0.1,0.7-0.4,0.9c0,0,0,0-0.1,0.1h2.4l-1.3-3.4H32.5z M33.5,67.1L33.5,67.1c-0.2-0.8-0.7-1.8-1.3-2.3
		c-0.3-0.3-0.7-0.5-1-0.8c-0.3-0.3-0.4-1.1-0.3-1.6c0,0,0,0,0-0.1l-1.4-0.5l-0.4,1.1c-0.4,1-1.7,0.5-1.7,0.5
		c-1.2-0.4-2.9-0.2-2.9-0.2c-0.1,0-0.4,0-0.6,0.1c-0.1,0-0.1,0.1-0.1,0.2c0,0,0,0.1,0,0.2c0.2,0.2,0.2,0.6,0.2,0.7
		c0,0.1,0,0.2,0.4,0.2c0.2,0,0.4,0,0.4,0h0c0.5-0.1,1-0.1,1.4-0.1c0.6,0,1,0.1,1.1,0.1c0.2,0,0.6,0.1,0.6,0.4c0,0.2,0,0.3-0.1,0.4
		l0,0c-1,0.6-1.7,0.9-2.8,1c0,0,0,0.1,0,0.1c0,0.1,0.1,0.1,0.2,0.1l0,0l0.1,0c0.6,0.3,1,0.8,1.1,1.3c0,0.1,0.1,0.1,0.1,0.1
		c0.1-0.1,0.2-0.2,0.3-0.4c0,0,0-0.1,0.1-0.1c0.9-1.8,1.9-2.8,3.2-2.8c0.5,0,0.9,0.2,1.1,0.6c0.3,0.4,0.4,1,0.3,1.5
		c0,0.1,0.1,0.2,0.1,0.2c0.1,0.1,0.2,0.1,0.4,0.2c0.3,0.2,0.6,0.3,0.7,0.6c0,0.1,0.2,0.1,0.4,0c0,0,0.3-0.2,0.4-0.4
		C33.5,67.2,33.5,67.1,33.5,67.1 M31.8,67.4c-0.1,0-0.2-0.1-0.2-0.1c-0.1,0.3-0.3,0.6-0.6,0.8c0.2,0.1,0.4,0.1,0.7,0.1
		c0.3,0,0.5-0.2,0.7-0.3C32.3,67.6,32.1,67.5,31.8,67.4 M14.9,56.7c-0.1-0.2-0.2-0.4-0.2-0.6c-0.4,0.1-0.7,0.4-0.9,0.8
		c-0.1,0.4-0.1,0.8,0,1.1c0.2-0.5,0.9-0.7,1.5-0.8C15.2,57,15,56.9,14.9,56.7 M21.8,56.7L21.5,56l-1,0.2c0,0-0.9,0.2-1.7,0.5
		c-0.6,0.2-1.6,0.7-1.5,1.3c0.1,0.6,0.4,1,1.1,1.2c0.4,0.1,0.7,0,0.9-0.1c0,0,0,0,0-0.1c0,0,0-0.1,0-0.1c-0.1-0.2-0.3-0.7,0-1.1
		C19.5,57.2,20.4,56.8,21.8,56.7 M34.5,57.1L34.5,57.1c-1.9-0.5-3.5-1.1-4.8-1.6c0,0,1.9,2.7-0.5,5.6l2.5,1
		C34.8,61.7,34.5,57.1,34.5,57.1 M17.7,59.1c-0.4-0.2-0.6-0.6-0.8-1c-0.4,0.1-0.6,0.4-0.7,0.8c-0.1,0.4-0.1,0.8,0.1,1.2
		C16.5,59.5,17.2,59.3,17.7,59.1 M30.4,55c-1.6-1-3.1-2.3-4.4-3.8c-2.1-2.4-3.6-5.2-4.3-7.8c-0.6,0.6-0.8,1.5-0.8,2.5
		C20.9,48.5,23.3,51.8,30.4,55 M17.9,63.5L17.9,63.5c0.2,0,0.8,0,1.2-0.4c0.2-0.2,0.2-0.4,0.2-0.6v-3.2c-0.1,0.1-0.3,0.1-0.5,0.1
		c-0.2,0-0.3,0-0.5-0.1c0,0,0,0,0,0c-1,0-1.6,0.7-1.7,0.9v2.3c0,0.2,0.1,0.4,0.2,0.6C17.1,63.5,17.7,63.5,17.9,63.5 M18.6,35.6v-0.8
		c-0.2,0.2-0.4,0.3-0.5,0.2c-0.1-0.1,0-0.2,0.2-0.4h-0.8c0.2,0.2,0.3,0.4,0.2,0.4c-0.1,0.1-0.3,0-0.5-0.2v0.8
		c0.2-0.2,0.4-0.3,0.5-0.2c0.1,0.1,0,0.2-0.2,0.4h-1.2c-0.4-0.4-0.4-0.9-0.2-1.2c0.2-0.2,0.4-0.3,0.7-0.2l0.2,0.1l0.1-0.3L17,34.1
		c-0.5-0.2-0.9,0-1.1,0.3c-0.3,0.4-0.2,1.2,0.3,1.7l0,0h3.5l0,0c0.5-0.5,0.6-1.2,0.3-1.7c-0.2-0.4-0.7-0.5-1.1-0.3l-0.2,0.1l0.1,0.3
		l0.2-0.1c0.3-0.1,0.6,0,0.7,0.2c0.2,0.3,0.2,0.9-0.2,1.2h-1.2c-0.2-0.2-0.2-0.4-0.2-0.4C18.2,35.3,18.4,35.4,18.6,35.6 M15.8,36.7
		L15.8,36.7l4.2,0.1l0.1-0.1c0.7-0.6,1-1.6,0.8-2.4c-0.1-0.5-0.4-0.8-0.8-1c-0.4-0.2-0.8-0.2-1.3,0l-0.2,0.1l0.2,0.4l0.2-0.1
		c0.3-0.1,0.6-0.1,0.9,0c0.2,0.1,0.4,0.4,0.5,0.7c0.2,0.6,0,1.4-0.5,1.9H16c-0.5-0.5-0.7-1.2-0.5-1.9c0.1-0.3,0.3-0.6,0.5-0.7
		c0.2-0.1,0.6-0.1,0.9,0l0.2,0.1l0.2-0.4L17,33.3c-0.5-0.2-0.9-0.2-1.3,0c-0.4,0.2-0.6,0.5-0.8,1C14.8,35.1,15.1,36.1,15.8,36.7
		 M17.9,33.2c-0.3,0-0.5,0.2-0.5,0.5c0,0.3,0.2,0.5,0.5,0.5s0.5-0.2,0.5-0.5C18.5,33.5,18.2,33.2,17.9,33.2 M17.7,32.6
		c0.1,0.1,0,0.3-0.2,0.5h1c-0.2-0.2-0.3-0.4-0.2-0.5c0.1-0.1,0.3,0,0.5,0.2v-0.9c-0.2,0.2-0.5,0.3-0.5,0.2c-0.1-0.1,0-0.3,0.2-0.5
		h-1c0.2,0.2,0.3,0.4,0.2,0.5c-0.1,0.1-0.3,0-0.5-0.2v0.9C17.4,32.6,17.6,32.5,17.7,32.6 M14.7,55.7C14.7,55.7,14.7,55.6,14.7,55.7
		c0.1-0.2,0.2-0.3,0.3-0.4c0-0.1-0.1-0.4-0.1-0.6c-0.1,0-0.2,0.1-0.3,0.2c-0.2,0.2-0.2,0.7-0.2,0.9c0,0,0.1,0,0.1,0L14.7,55.7z"/>
</g>
</svg>
