<?xml version="1.0" encoding="utf-8"?>
<!-- Generator: Adobe Illustrator 27.0.1, SVG Export Plug-In . SVG Version: 6.00 Build 0)  -->
<svg version="1.1" id="Layer_1" xmlns="http://www.w3.org/2000/svg" xmlns:xlink="http://www.w3.org/1999/xlink" x="0px" y="0px"
	 viewBox="0 0 120 109" style="enable-background:new 0 0 120 109;" xml:space="preserve">
<style type="text/css">
	.st0{display:none;fill:#0F265C;}
</style>
<path class="st0" d="M44.8,43.6c-1.1,0.4-2.4,1-4.2,1c-3.5,0-5.8-2.1-5.8-5.5c0-3.3,2.3-5.6,5.9-5.6c2.1,0,3.3,0.5,4,1
	c0,0.4-0.1,0.8-0.4,1.3H44c-0.7-0.8-1.8-1.5-3.4-1.5c-2.7,0-4.2,2.1-4.2,4.8c0,2.8,1.8,4.7,4.3,4.7c0.8,0,1.9-0.3,2.5-0.7
	c0-1.2-0.1-3.3-0.1-3.9h1.6C44.8,40.1,44.8,43.1,44.8,43.6z M47.9,40.8h5l0.2-0.1c0-1.5-0.4-3.8-3.2-3.8c-2.3,0-3.6,2-3.6,4
	c0,1.7,1.1,3.7,3.9,3.7c1.5,0,2.5-0.6,2.7-1c0.1-0.2,0.1-0.6,0.1-1h-0.2c-0.3,0.5-1.1,1.2-2.3,1.2C49.1,43.9,47.9,43,47.9,40.8z
	 M47.9,40.1c0.1-1.7,1.1-2.5,2.1-2.5c1.2,0,1.8,1.2,1.7,2.5H47.9z M59.7,44.5c0-0.7,0.1-3.8,0.1-4.3c0-1.3-0.5-2.3-1.8-2.3
	c-0.7,0-2,0.6-2,2.5c0,0.4,0.1,3.5,0.1,4h-1.5c0.1-0.9,0.1-3.8,0.1-4.3s0-2.4-0.1-3.1h1.5v1.1c0.4-0.7,1.2-1.2,2.4-1.2
	c1.5,0,2.7,1,2.7,2.7c0,0.7-0.1,2.6-0.1,2.8c0,0.3,0,1.8,0.1,2.1H59.7L59.7,44.5L59.7,44.5z M64.2,40.8h5.1l0.2-0.1
	c0-1.5-0.4-3.8-3.2-3.8c-2.3,0-3.6,2-3.6,4c0,1.7,1.1,3.7,3.9,3.7c1.5,0,2.4-0.6,2.7-1c0.1-0.2,0.1-0.6,0.1-1h-0.2
	c-0.3,0.5-1.1,1.2-2.3,1.2C65.5,43.9,64.2,43,64.2,40.8z M64.2,40.1c0.1-1.7,1.1-2.5,2.1-2.5c1.2,0,1.8,1.2,1.7,2.5H64.2z
	 M74.7,38.5h-0.2c-0.1-0.3-0.3-0.5-0.7-0.5c-0.9,0-1.5,0.9-1.5,2.4c0,0.4,0.1,3.5,0.1,4h-1.5c0.1-0.9,0.1-3.8,0.1-4.3s0-2.4-0.1-3.1
	h1.6v1.2c0.2-0.6,0.9-1.4,1.9-1.4c0.3,0,0.5,0.1,0.7,0.3C75.1,37.6,75,38.1,74.7,38.5z M80,43.7c0.2,0.6,0.4,0.8,1.2,0.8
	c0.3,0,0.8-0.1,1-0.3v-0.5c-0.1,0.1-0.3,0.1-0.4,0.1c-0.3,0-0.4-0.2-0.4-0.8c0-0.5,0.1-3.1,0.1-3.7c0-1.3-0.8-2.4-2.6-2.4
	c-1.2,0-1.9,0.4-2.5,0.8c-0.1,0.1-0.1,0.2-0.1,0.4s0,0.5,0.1,0.7h0.1c0.4-0.7,0.9-1.2,1.8-1.2c0.9,0,1.6,0.6,1.6,1.6v0.6
	c-0.5,0.2-1,0.3-1.5,0.4c-1.5,0.4-3,0.7-3,2.4c0,0.9,0.6,2,2.3,2C78.7,44.6,79.4,44.3,80,43.7z M79.4,40.7c0.2,0,0.4-0.1,0.5-0.1
	v2.3c-0.6,0.7-1.2,1-1.7,1c-0.7,0-1.3-0.5-1.3-1.3C76.9,41.2,78.1,41,79.4,40.7z M83.5,44.5c0.1-0.9,0.1-5.4,0.1-5.9s0-4.6-0.1-5.4
	H85c0,0.7-0.1,4.9-0.1,5.4s0,4.9,0.1,5.9H83.5z M44.7,59.9c-0.2-2.7-0.4-5-0.7-7.6c-1.4,2.8-2.3,4.8-3.6,7.6H40
	c-1.3-2.7-2.4-4.9-3.7-7.6c-0.1,1.6-0.3,4.9-0.4,7.6h-1.2c0.4-3.7,0.7-7.2,1.1-10.9h0.4c1.4,2.9,2.8,5.4,4.4,8.3
	c1.5-2.9,2.6-5.3,4.1-8.3h0.3c0.4,3.6,0.8,7.2,1.2,10.9H44.7L44.7,59.9z M48.9,56.3H54l0.2-0.1c0-1.5-0.4-3.8-3.2-3.8
	c-2.4,0-3.6,2-3.6,4c0,1.7,1.1,3.7,3.9,3.7c1.5,0,2.5-0.6,2.7-1c0.1-0.2,0.1-0.6,0.1-1h-0.2c-0.3,0.5-1.1,1.2-2.3,1.2
	C50.2,59.3,49,58.4,48.9,56.3z M49,55.5c0.1-1.7,1.1-2.5,2.1-2.5c1.2,0,1.8,1.2,1.7,2.5H49z M61.2,58.9c0,0.4,0,0.8,0,1h1.5
	c0-0.5,0-1.8-0.1-3.1c0-1.3,0-2.5,0-2.7s0-1.2,0-2.2c0-1.3,0-2.7,0-3.1h-1.4c0,0.4,0.1,1.5,0.1,2.6c0,0.7,0,1.5,0,2
	c-0.4-0.5-1.1-1-2.1-1c-2.4,0-3.7,2-3.7,3.9c0,1.5,0.8,3.9,3.5,3.9C60,60.1,60.8,59.8,61.2,58.9z M57,56.3c0-1.9,1-3.1,2.2-3.1
	s2.1,0.9,2.1,3.1c0,1.6-0.7,3.2-2.2,3.2C57.8,59.4,57,58,57,56.3z M64.7,50.1c0,0.5,0.4,0.9,0.9,0.9s0.9-0.4,0.9-0.9
	s-0.4-0.9-0.9-0.9C65.2,49.2,64.7,49.6,64.7,50.1z M64.9,55.7c0,0.5,0,3.3-0.1,4.3h1.5c0-0.9-0.1-3.8-0.1-4.3c0-0.3,0-1.3,0.1-2.1
	c0-0.4,0-0.8,0-1h-1.5C64.9,53.3,64.9,55.2,64.9,55.7z M74.6,59.2c-0.2,0.4-1.2,1-2.7,1c-3,0-3.8-2.3-3.8-3.9c0-2.4,1.6-3.9,4-3.9
	c1,0,1.8,0.3,2.5,0.8c0,0.4-0.1,0.7-0.4,1.2h-0.2c-0.4-0.6-0.9-1.2-1.9-1.2c-1.5,0-2.5,1.2-2.5,3.1c0,2,1,3.1,2.6,3.1
	c1.1,0,2-0.7,2.3-1.2h0.2C74.8,58.5,74.8,58.9,74.6,59.2z M80.2,59.2c0.2,0.6,0.4,0.8,1.2,0.8c0.2,0,0.4-0.1,0.7-0.1
	c0.1-0.1,0.2-0.1,0.3-0.1v-0.5c-0.1,0.1-0.3,0.1-0.4,0.1c-0.3,0-0.4-0.2-0.4-0.8c0-0.5,0.1-3.1,0.1-3.7c0-1.3-0.8-2.4-2.6-2.4
	c-1.2,0-2,0.4-2.5,0.8c-0.2,0.1-0.1,0.8,0,1.1h0.2c0.4-0.7,0.9-1.2,1.8-1.2s1.6,0.6,1.6,1.6v0.5c-0.5,0.2-1,0.3-1.5,0.4
	c-1.5,0.4-3,0.7-3,2.4c0,0.9,0.6,2,2.3,2C78.8,60.1,79.5,59.8,80.2,59.2z M79.6,56.2c0.2,0,0.4-0.1,0.5-0.1v2.3
	c-0.6,0.7-1.2,1-1.7,1c-0.7,0-1.3-0.5-1.3-1.3C77.1,56.8,78.2,56.5,79.6,56.2z M83.7,59.9c0.1-0.9,0.1-5.4,0.1-5.9s0-4.6-0.1-5.4
	h1.5c0,0.7-0.1,4.9-0.1,5.4s0,4.9,0.1,5.9H83.7z M80,66.2c0,0.5,0.4,0.9,0.9,0.9s0.9-0.4,0.9-0.9s-0.4-0.9-0.9-0.9S80,65.8,80,66.2z
	 M45.2,73.9c-0.4,0.7-1.9,1.7-3.9,1.7c-4.6,0-5.8-3.3-5.8-5.5c0-3.7,2.7-5.6,5.7-5.6c2,0,3.1,0.6,3.8,1c0,0.4-0.1,0.9-0.4,1.3h-0.2
	c-0.7-0.9-1.8-1.5-3.2-1.5c-2.8,0-4,2.3-4,4.7c0,2.1,1.3,4.8,4.3,4.8c1.7,0,3.2-1.1,3.6-1.9h0.2C45.2,73.2,45.2,73.8,45.2,73.9z
	 M46.1,71.8c0,1.5,0.8,3.9,3.8,3.9s3.8-2.3,3.8-3.9c0-2.1-1.3-3.9-3.8-3.9C47.5,67.9,46.1,69.8,46.1,71.8z M47.7,71.8
	c0-1.6,0.7-3.2,2.3-3.2c1.5,0,2.3,1.6,2.3,3.2c0,1.8-0.7,3.2-2.3,3.2S47.7,73.6,47.7,71.8z M61.7,72.3c0,0.5,0,2.4,0.1,3.1h-1.5
	v-1.1c-0.4,0.7-1.2,1.2-2.4,1.2c-1.5,0-2.7-1-2.7-2.6c0-0.7,0.1-2.6,0.1-2.8c0-0.5,0-1.6-0.1-2.1h1.5c0,0.7-0.1,3.8-0.1,4.3
	c0,1.3,0.5,2.3,1.8,2.3c0.7,0,2-0.6,2-2.5c0-0.4-0.1-3.5-0.1-4h1.5C61.7,69.1,61.7,71.8,61.7,72.3z M68.8,75.4
	c0-0.7,0.1-3.8,0.1-4.3c0-1.3-0.5-2.3-1.8-2.3c-0.7,0-2,0.6-2,2.5c0,0.4,0.1,3.5,0.1,4h-1.5c0.1-0.9,0.1-3.8,0.1-4.3s0-2.4-0.1-3.1
	h1.5v1.1c0.4-0.7,1.2-1.2,2.4-1.2c1.5,0,2.7,1,2.7,2.6c0,0.7-0.1,2.6-0.1,2.8c0,0.2,0,1.8,0.1,2.1L68.8,75.4L68.8,75.4z M78.1,69.8
	h-0.2c-0.3-0.6-1-1.2-2-1.2c-1.5,0-2.6,1.2-2.6,3.2c0,2.1,1.3,3.1,2.6,3.1c1.1,0,2-0.5,2.3-1.1h0.3c0.1,0.3,0,0.8-0.1,1
	c-0.2,0.2-0.8,1-2.7,1c-2.6,0-3.9-2-3.9-3.9c0-1.5,0.8-3.9,4-3.9c1.4,0,2.1,0.4,2.7,0.8C78.5,69.1,78.4,69.4,78.1,69.8z M80.2,71.2
	c0,0.5,0,3.3-0.1,4.3h1.5c0-0.9-0.1-3.8-0.1-4.3s0.1-2.4,0.1-3.1h-1.5C80.1,68.8,80.2,70.8,80.2,71.2z M83.8,75.4
	c0.1-0.9,0.1-5.4,0.1-5.9s0-4.6-0.1-5.4h1.5c0,0.7-0.1,4.9-0.1,5.4s0,4.9,0.1,5.9H83.8z"/>
<image style="display:none;overflow:visible;enable-background:new    ;" width="1025" height="210" xlink:href="528D574A2805162D.png"  transform="matrix(0.9989 0 0 0.9989 -82.4854 -105.5265)">
</image>
<image style="overflow:visible;" width="1000" height="1000" xlink:href="ent-uk .png"  transform="matrix(5.814672e-02 0 0 5.814672e-02 30.9266 25.4266)">
</image>
</svg>
