<?xml version="1.0" encoding="UTF-8"?><svg id="Layer_1" xmlns="http://www.w3.org/2000/svg" viewBox="0 0 25.19 21.3"><defs><style>.cls-1{fill:#0f265c;}</style></defs><path class="cls-1" d="M4.99,5.19c-.55,.2-1.2,.5-2.1,.5-1.75,0-2.89-1.05-2.89-2.74S1.15,.15,2.94,.15c1.05,0,1.65,.25,2,.5,0,.2-.05,.4-.2,.65h-.1c-.35-.4-.9-.75-1.7-.75C1.6,.55,.85,1.6,.85,2.94s.9,2.34,2.14,2.34c.4,0,.95-.15,1.25-.35,0-.6-.05-1.65-.05-1.95h.8v2.19Zm1.55-1.4h2.49l.1-.05c0-.75-.2-1.9-1.6-1.9-1.15,0-1.8,1-1.8,2,0,.85,.55,1.85,1.95,1.85,.75,0,1.25-.3,1.35-.5,.05-.1,.05-.3,.05-.5h-.1c-.15,.25-.55,.6-1.15,.6-.7,.05-1.3-.4-1.3-1.5Zm0-.35c.05-.85,.55-1.25,1.05-1.25,.6,0,.9,.6,.85,1.25h-1.9Zm5.89,2.19c0-.35,.05-1.9,.05-2.14,0-.65-.25-1.15-.9-1.15-.35,0-1,.3-1,1.25,0,.2,.05,1.75,.05,2h-.75c.05-.45,.05-1.9,.05-2.14s0-1.2-.05-1.55h.75v.55c.2-.35,.6-.6,1.2-.6,.75,0,1.35,.5,1.35,1.35,0,.35-.05,1.3-.05,1.4,0,.15,0,.9,.05,1.05h-.75Zm2.24-1.85h2.54l.1-.05c0-.75-.2-1.9-1.6-1.9-1.15,0-1.8,1-1.8,2,0,.85,.55,1.85,1.95,1.85,.75,0,1.2-.3,1.35-.5,.05-.1,.05-.3,.05-.5h-.1c-.15,.25-.55,.6-1.15,.6-.7,.05-1.3-.4-1.35-1.5Zm.05-.35c.05-.85,.55-1.25,1.05-1.25,.6,0,.9,.6,.85,1.25h-1.9Zm5.19-.8h-.1c-.05-.15-.15-.25-.35-.25-.45,0-.75,.45-.75,1.2,0,.2,.05,1.75,.05,2h-.75c.05-.45,.05-1.9,.05-2.14s0-1.2-.05-1.55h.8v.6c.1-.3,.45-.7,.95-.7,.15,0,.25,.05,.35,.15,0,.25-.05,.5-.2,.7Zm2.64,2.59c.1,.3,.2,.4,.6,.4,.15,0,.4-.05,.5-.15v-.25s-.15,.05-.2,.05c-.15,0-.2-.1-.2-.4,0-.25,.05-1.55,.05-1.85,0-.65-.4-1.2-1.3-1.2-.6,0-.95,.2-1.25,.4-.05,.05-.05,.1-.05,.2s0,.25,.05,.35h.05c.2-.35,.45-.6,.9-.6s.8,.3,.8,.8v.3c-.25,.1-.5,.15-.75,.2-.75,.2-1.5,.35-1.5,1.2,0,.45,.3,1,1.15,1,.5,0,.85-.15,1.15-.45Zm-.3-1.5c.1,0,.2-.05,.25-.05v1.15c-.3,.35-.6,.5-.85,.5-.35,0-.65-.25-.65-.65,0-.65,.6-.8,1.25-.95Zm2.05,1.9c.05-.45,.05-2.69,.05-2.94s0-2.29-.05-2.69h.75c0,.35-.05,2.44-.05,2.69s0,2.44,.05,2.94h-.75ZM4.94,13.32c-.1-1.35-.2-2.49-.35-3.79-.7,1.4-1.15,2.39-1.8,3.79h-.15c-.65-1.35-1.2-2.44-1.85-3.79-.05,.8-.15,2.44-.2,3.79H0c.2-1.85,.35-3.59,.55-5.44h.2c.7,1.45,1.4,2.69,2.19,4.14,.75-1.45,1.3-2.64,2.05-4.14h.15c.2,1.8,.4,3.59,.6,5.44h-.8Zm2.1-1.8h2.54l.1-.05c0-.75-.2-1.9-1.6-1.9-1.2,0-1.8,1-1.8,2,0,.85,.55,1.85,1.95,1.85,.75,0,1.25-.3,1.35-.5,.05-.1,.05-.3,.05-.5h-.1c-.15,.25-.55,.6-1.15,.6-.7,0-1.3-.45-1.35-1.5Zm.05-.4c.05-.85,.55-1.25,1.05-1.25,.6,0,.9,.6,.85,1.25h-1.9Zm6.14,1.7v.5h.75c0-.25,0-.9-.05-1.55v-3.99h-.7c0,.2,.05,.75,.05,1.3v1c-.2-.25-.55-.5-1.05-.5-1.2,0-1.85,1-1.85,1.95,0,.75,.4,1.95,1.75,1.95,.45-.05,.85-.2,1.1-.65Zm-2.1-1.3c0-.95,.5-1.55,1.1-1.55s1.05,.45,1.05,1.55c0,.8-.35,1.6-1.1,1.6-.7-.05-1.05-.75-1.05-1.6Zm3.79-3.09c0,.25,.2,.45,.45,.45s.45-.2,.45-.45-.2-.45-.45-.45c-.2,0-.45,.2-.45,.45Zm.1,2.79c0,.25,0,1.65-.05,2.14h.75c0-.45-.05-1.9-.05-2.14,0-.15,0-.65,.05-1.05v-.5h-.75c.05,.35,.05,1.3,.05,1.55Zm4.84,1.75c-.1,.2-.6,.5-1.35,.5-1.5,0-1.9-1.15-1.9-1.95,0-1.2,.8-1.95,2-1.95,.5,0,.9,.15,1.25,.4,0,.2-.05,.35-.2,.6h-.1c-.2-.3-.45-.6-.95-.6-.75,0-1.25,.6-1.25,1.55,0,1,.5,1.55,1.3,1.55,.55,0,1-.35,1.15-.6h.1c.05,.15,.05,.35-.05,.5Zm2.79,0c.1,.3,.2,.4,.6,.4,.1,0,.2-.05,.35-.05,.05-.05,.1-.05,.15-.05v-.25s-.15,.05-.2,.05c-.15,0-.2-.1-.2-.4,0-.25,.05-1.55,.05-1.85,0-.65-.4-1.2-1.3-1.2-.6,0-1,.2-1.25,.4-.1,.05-.05,.4,0,.55h.1c.2-.35,.45-.6,.9-.6s.8,.3,.8,.8v.25c-.25,.1-.5,.15-.75,.2-.75,.2-1.5,.35-1.5,1.2,0,.45,.3,1,1.15,1,.4,0,.75-.15,1.1-.45Zm-.3-1.5c.1,0,.2-.05,.25-.05v1.15c-.3,.35-.6,.5-.85,.5-.35,0-.65-.25-.65-.65,0-.65,.55-.8,1.25-.95Zm2.05,1.85c.05-.45,.05-2.69,.05-2.94s0-2.29-.05-2.69h.75c0,.35-.05,2.44-.05,2.69s0,2.44,.05,2.94h-.75Zm-1.85,3.19c0,.25,.2,.45,.45,.45s.45-.2,.45-.45-.2-.45-.45-.45-.45,.2-.45,.45Zm-17.36,3.84c-.2,.35-.95,.85-1.95,.85-2.29,0-2.89-1.65-2.89-2.74,0-1.85,1.35-2.79,2.84-2.79,1,0,1.55,.3,1.9,.5,0,.2-.05,.45-.2,.65h-.1c-.35-.45-.9-.75-1.6-.75-1.4,0-2,1.15-2,2.34,0,1.05,.65,2.39,2.14,2.39,.85,0,1.6-.55,1.8-.95h.1c0,.15,0,.45-.05,.5Zm.45-1.05c0,.75,.4,1.95,1.9,1.95s1.9-1.15,1.9-1.95c0-1.05-.65-1.95-1.9-1.95s-1.9,.9-1.9,1.95Zm.8-.05c0-.8,.35-1.6,1.15-1.6,.75,0,1.15,.8,1.15,1.6,0,.9-.35,1.6-1.15,1.6s-1.15-.7-1.15-1.6Zm6.98,.3c0,.25,0,1.2,.05,1.55h-.75v-.55c-.2,.35-.6,.6-1.2,.6-.75,0-1.35-.5-1.35-1.3,0-.35,.05-1.3,.05-1.4,0-.25,0-.8-.05-1.05h.75c0,.35-.05,1.9-.05,2.14,0,.65,.25,1.15,.9,1.15,.35,0,1-.3,1-1.25,0-.2-.05-1.75-.05-2h.75c-.05,.45-.05,1.85-.05,2.1Zm3.54,1.55c0-.35,.05-1.9,.05-2.14,0-.65-.25-1.15-.9-1.15-.35,0-1,.3-1,1.25,0,.2,.05,1.75,.05,2h-.75c.05-.45,.05-1.9,.05-2.14s0-1.2-.05-1.55h.75v.55c.2-.35,.6-.6,1.2-.6,.75,0,1.35,.5,1.35,1.3,0,.35-.05,1.3-.05,1.4s0,.9,.05,1.05l-.75,.05h0Zm4.64-2.79h-.1c-.15-.3-.5-.6-1-.6-.75,0-1.3,.6-1.3,1.6,0,1.05,.65,1.55,1.3,1.55,.55,0,1-.25,1.15-.55h.15c.05,.15,0,.4-.05,.5-.1,.1-.4,.5-1.35,.5-1.3,0-1.95-1-1.95-1.95,0-.75,.4-1.95,2-1.95,.7,0,1.05,.2,1.35,.4,0,.1-.05,.3-.2,.5Zm1.05,.7c0,.25,0,1.65-.05,2.14h.75c0-.45-.05-1.9-.05-2.14s.05-1.2,.05-1.55h-.75c0,.3,.05,1.3,.05,1.55Zm1.8,2.1c.05-.45,.05-2.69,.05-2.94s0-2.29-.05-2.69h.75c0,.35-.05,2.44-.05,2.69s0,2.44,.05,2.94h-.75Z"/></svg>