<?xml version="1.0" encoding="UTF-8"?>
<svg id="Layer_1" data-name="Layer 1" xmlns="http://www.w3.org/2000/svg" viewBox="0 0 50.5 42.7">
  <defs>
    <style>
      .cls-1 {
        fill: #0f265c;
      }
    </style>
  </defs>
  <path class="cls-1" d="M10,10.4c-1.1,.4-2.4,1-4.2,1C2.3,11.4,0,9.3,0,5.9S2.3,.3,5.9,.3c2.1,0,3.3,.5,4,1,0,.4-.1,.8-.4,1.3h-.2c-.7-.8-1.8-1.5-3.4-1.5C3.2,1.1,1.7,3.2,1.7,5.9s1.8,4.7,4.3,4.7c.8,0,1.9-.3,2.5-.7,0-1.2-.1-3.3-.1-3.9h1.6v4.4Zm3.1-2.8h5l.2-.1c0-1.5-.4-3.8-3.2-3.8-2.3,0-3.6,2-3.6,4,0,1.7,1.1,3.7,3.9,3.7,1.5,0,2.5-.6,2.7-1,.1-.2,.1-.6,.1-1h-.2c-.3,.5-1.1,1.2-2.3,1.2-1.4,.1-2.6-.8-2.6-3Zm0-.7c.1-1.7,1.1-2.5,2.1-2.5,1.2,0,1.8,1.2,1.7,2.5h-3.8Zm11.8,4.4c0-.7,.1-3.8,.1-4.3,0-1.3-.5-2.3-1.8-2.3-.7,0-2,.6-2,2.5,0,.4,.1,3.5,.1,4h-1.5c.1-.9,.1-3.8,.1-4.3s0-2.4-.1-3.1h1.5v1.1c.4-.7,1.2-1.2,2.4-1.2,1.5,0,2.7,1,2.7,2.7,0,.7-.1,2.6-.1,2.8,0,.3,0,1.8,.1,2.1h-1.5Zm4.5-3.7h5.1l.2-.1c0-1.5-.4-3.8-3.2-3.8-2.3,0-3.6,2-3.6,4,0,1.7,1.1,3.7,3.9,3.7,1.5,0,2.4-.6,2.7-1,.1-.2,.1-.6,.1-1h-.2c-.3,.5-1.1,1.2-2.3,1.2-1.4,.1-2.6-.8-2.7-3Zm.1-.7c.1-1.7,1.1-2.5,2.1-2.5,1.2,0,1.8,1.2,1.7,2.5h-3.8Zm10.4-1.6h-.2c-.1-.3-.3-.5-.7-.5-.9,0-1.5,.9-1.5,2.4,0,.4,.1,3.5,.1,4h-1.5c.1-.9,.1-3.8,.1-4.3s0-2.4-.1-3.1h1.6v1.2c.2-.6,.9-1.4,1.9-1.4,.3,0,.5,.1,.7,.3,0,.5-.1,1-.4,1.4Zm5.3,5.2c.2,.6,.4,.8,1.2,.8,.3,0,.8-.1,1-.3v-.5c-.1,.1-.3,.1-.4,.1-.3,0-.4-.2-.4-.8,0-.5,.1-3.1,.1-3.7,0-1.3-.8-2.4-2.6-2.4-1.2,0-1.9,.4-2.5,.8-.1,.1-.1,.2-.1,.4s0,.5,.1,.7h.1c.4-.7,.9-1.2,1.8-1.2s1.6,.6,1.6,1.6v.6c-.5,.2-1,.3-1.5,.4-1.5,.4-3,.7-3,2.4,0,.9,.6,2,2.3,2,1,0,1.7-.3,2.3-.9Zm-.6-3c.2,0,.4-.1,.5-.1v2.3c-.6,.7-1.2,1-1.7,1-.7,0-1.3-.5-1.3-1.3,0-1.3,1.2-1.6,2.5-1.9Zm4.1,3.8c.1-.9,.1-5.4,.1-5.9s0-4.6-.1-5.4h1.5c0,.7-.1,4.9-.1,5.4s0,4.9,.1,5.9h-1.5ZM9.9,26.7c-.2-2.7-.4-5-.7-7.6-1.4,2.8-2.3,4.8-3.6,7.6h-.3c-1.3-2.7-2.4-4.9-3.7-7.6-.1,1.6-.3,4.9-.4,7.6H0c.4-3.7,.7-7.2,1.1-10.9h.4c1.4,2.9,2.8,5.4,4.4,8.3,1.5-2.9,2.6-5.3,4.1-8.3h.3c.4,3.6,.8,7.2,1.2,10.9h-1.6Zm4.2-3.6h5.1l.2-.1c0-1.5-.4-3.8-3.2-3.8-2.4,0-3.6,2-3.6,4,0,1.7,1.1,3.7,3.9,3.7,1.5,0,2.5-.6,2.7-1,.1-.2,.1-.6,.1-1h-.2c-.3,.5-1.1,1.2-2.3,1.2-1.4,0-2.6-.9-2.7-3Zm.1-.8c.1-1.7,1.1-2.5,2.1-2.5,1.2,0,1.8,1.2,1.7,2.5h-3.8Zm12.3,3.4v1h1.5c0-.5,0-1.8-.1-3.1V15.6h-1.4c0,.4,.1,1.5,.1,2.6v2c-.4-.5-1.1-1-2.1-1-2.4,0-3.7,2-3.7,3.9,0,1.5,.8,3.9,3.5,3.9,.9-.1,1.7-.4,2.2-1.3Zm-4.2-2.6c0-1.9,1-3.1,2.2-3.1s2.1,.9,2.1,3.1c0,1.6-.7,3.2-2.2,3.2-1.4-.1-2.1-1.5-2.1-3.2Zm7.6-6.2c0,.5,.4,.9,.9,.9s.9-.4,.9-.9-.4-.9-.9-.9c-.4,0-.9,.4-.9,.9Zm.2,5.6c0,.5,0,3.3-.1,4.3h1.5c0-.9-.1-3.8-.1-4.3,0-.3,0-1.3,.1-2.1v-1h-1.5c.1,.7,.1,2.6,.1,3.1Zm9.7,3.5c-.2,.4-1.2,1-2.7,1-3,0-3.8-2.3-3.8-3.9,0-2.4,1.6-3.9,4-3.9,1,0,1.8,.3,2.5,.8,0,.4-.1,.7-.4,1.2h-.2c-.4-.6-.9-1.2-1.9-1.2-1.5,0-2.5,1.2-2.5,3.1,0,2,1,3.1,2.6,3.1,1.1,0,2-.7,2.3-1.2h.2c.1,.3,.1,.7-.1,1Zm5.6,0c.2,.6,.4,.8,1.2,.8,.2,0,.4-.1,.7-.1,.1-.1,.2-.1,.3-.1v-.5c-.1,.1-.3,.1-.4,.1-.3,0-.4-.2-.4-.8,0-.5,.1-3.1,.1-3.7,0-1.3-.8-2.4-2.6-2.4-1.2,0-2,.4-2.5,.8-.2,.1-.1,.8,0,1.1h.2c.4-.7,.9-1.2,1.8-1.2s1.6,.6,1.6,1.6v.5c-.5,.2-1,.3-1.5,.4-1.5,.4-3,.7-3,2.4,0,.9,.6,2,2.3,2,.8,0,1.5-.3,2.2-.9Zm-.6-3c.2,0,.4-.1,.5-.1v2.3c-.6,.7-1.2,1-1.7,1-.7,0-1.3-.5-1.3-1.3,0-1.3,1.1-1.6,2.5-1.9Zm4.1,3.7c.1-.9,.1-5.4,.1-5.9s0-4.6-.1-5.4h1.5c0,.7-.1,4.9-.1,5.4s0,4.9,.1,5.9h-1.5Zm-3.7,6.4c0,.5,.4,.9,.9,.9s.9-.4,.9-.9-.4-.9-.9-.9-.9,.4-.9,.9Zm-34.8,7.7c-.4,.7-1.9,1.7-3.9,1.7-4.6,0-5.8-3.3-5.8-5.5,0-3.7,2.7-5.6,5.7-5.6,2,0,3.1,.6,3.8,1,0,.4-.1,.9-.4,1.3h-.2c-.7-.9-1.8-1.5-3.2-1.5-2.8,0-4,2.3-4,4.7,0,2.1,1.3,4.8,4.3,4.8,1.7,0,3.2-1.1,3.6-1.9h.2c0,.3,0,.9-.1,1Zm.9-2.1c0,1.5,.8,3.9,3.8,3.9s3.8-2.3,3.8-3.9c0-2.1-1.3-3.9-3.8-3.9s-3.8,1.8-3.8,3.9Zm1.6-.1c0-1.6,.7-3.2,2.3-3.2,1.5,0,2.3,1.6,2.3,3.2,0,1.8-.7,3.2-2.3,3.2s-2.3-1.4-2.3-3.2Zm14,.6c0,.5,0,2.4,.1,3.1h-1.5v-1.1c-.4,.7-1.2,1.2-2.4,1.2-1.5,0-2.7-1-2.7-2.6,0-.7,.1-2.6,.1-2.8,0-.5,0-1.6-.1-2.1h1.5c0,.7-.1,3.8-.1,4.3,0,1.3,.5,2.3,1.8,2.3,.7,0,2-.6,2-2.5,0-.4-.1-3.5-.1-4h1.5c-.1,.9-.1,3.7-.1,4.2Zm7.1,3.1c0-.7,.1-3.8,.1-4.3,0-1.3-.5-2.3-1.8-2.3-.7,0-2,.6-2,2.5,0,.4,.1,3.5,.1,4h-1.5c.1-.9,.1-3.8,.1-4.3s0-2.4-.1-3.1h1.5v1.1c.4-.7,1.2-1.2,2.4-1.2,1.5,0,2.7,1,2.7,2.6,0,.7-.1,2.6-.1,2.8s0,1.8,.1,2.1l-1.5,.1h0Zm9.3-5.6h-.2c-.3-.6-1-1.2-2-1.2-1.5,0-2.6,1.2-2.6,3.2,0,2.1,1.3,3.1,2.6,3.1,1.1,0,2-.5,2.3-1.1h.3c.1,.3,0,.8-.1,1-.2,.2-.8,1-2.7,1-2.6,0-3.9-2-3.9-3.9,0-1.5,.8-3.9,4-3.9,1.4,0,2.1,.4,2.7,.8,0,.2-.1,.6-.4,1Zm2.1,1.4c0,.5,0,3.3-.1,4.3h1.5c0-.9-.1-3.8-.1-4.3s.1-2.4,.1-3.1h-1.5c0,.6,.1,2.6,.1,3.1Zm3.6,4.2c.1-.9,.1-5.4,.1-5.9s0-4.6-.1-5.4h1.5c0,.7-.1,4.9-.1,5.4s0,4.9,.1,5.9h-1.5Z"/>
</svg>